<?xml version="1.0" encoding="UTF-8" standalone="no"?>
<!-- Generator: Adobe Illustrator 15.0.0, SVG Export Plug-In . SVG Version: 6.00 Build 0)  -->

<svg
   xmlns:dc="http://purl.org/dc/elements/1.1/"
   xmlns:cc="http://creativecommons.org/ns#"
   xmlns:rdf="http://www.w3.org/1999/02/22-rdf-syntax-ns#"
   xmlns:svg="http://www.w3.org/2000/svg"
   xmlns="http://www.w3.org/2000/svg"
   xmlns:sodipodi="http://sodipodi.sourceforge.net/DTD/sodipodi-0.dtd"
   xmlns:inkscape="http://www.inkscape.org/namespaces/inkscape"
   version="1.1"
   id="Icons"
   x="0px"
   y="0px"
   width="100"
   height="100"
   viewBox="0 0 100 100"
   xml:space="preserve"
   inkscape:version="0.48.4 r9939"
   sodipodi:docname="about.svg"
   inkscape:export-filename="/home/damien/Projects/damien.git/SailfishOS/SomaFM/images/icons/icon-l-about.png"
   inkscape:export-xdpi="86.400002"
   inkscape:export-ydpi="86.400002"><metadata
     id="metadata8"><rdf:RDF><cc:Work
         rdf:about=""><dc:format>image/svg+xml</dc:format><dc:type
           rdf:resource="http://purl.org/dc/dcmitype/StillImage" /><dc:title></dc:title></cc:Work></rdf:RDF></metadata><defs
     id="defs6" /><sodipodi:namedview
     pagecolor="#ffffff"
     bordercolor="#666666"
     borderopacity="1"
     objecttolerance="10"
     gridtolerance="10"
     guidetolerance="10"
     inkscape:pageopacity="0"
     inkscape:pageshadow="2"
     inkscape:window-width="1366"
     inkscape:window-height="717"
     id="namedview4"
     showgrid="false"
     units="px"
     fit-margin-top="0"
     fit-margin-left="0"
     fit-margin-right="0"
     fit-margin-bottom="0"
     inkscape:zoom="2.8284272"
     inkscape:cx="-35.607093"
     inkscape:cy="55.859561"
     inkscape:window-x="-2"
     inkscape:window-y="-3"
     inkscape:window-maximized="1"
     inkscape:current-layer="Icons"
     inkscape:snap-bbox="true"><inkscape:grid
       type="xygrid"
       id="grid2982"
       units="px"
       empspacing="10"
       visible="true"
       enabled="true"
       snapvisiblegridlinesonly="true"
       spacingx="1px"
       spacingy="1px" /></sodipodi:namedview><circle
     d="m 1552.982,255.66701 c 0,128.6724 -104.3096,232.98199 -232.982,232.98199 -128.6724,0 -232.982,-104.30959 -232.982,-232.98199 0,-128.67241 104.3096,-232.981997 232.982,-232.981997 128.6724,0 232.982,104.309587 232.982,232.981997 z"
     style="fill:none;stroke:#ffffff;stroke-width:29.12274933000000132;stroke-miterlimit:4;stroke-opacity:1;stroke-dasharray:none"
     sodipodi:ry="232.98199"
     sodipodi:rx="232.98199"
     sodipodi:cy="255.66701"
     sodipodi:cx="1320"
     cx="1320"
     cy="255.66701"
     r="232.98199"
     id="circle3154"
     transform="matrix(0.16158785,0,0,0.16158785,-163.29596,8.6873168)" /><path
     id="path3234"
     d="M 59.377297,73.987089 H 40.622886 v -3.177585 h 1.001622 c 1.335039,0 2.308161,-0.183877 2.918509,-0.552661 0.609833,-0.368097 0.984282,-0.886077 1.12249,-1.554283 0.138208,-0.667519 0.207226,-1.645964 0.207226,-2.935849 V 55.50875 c 0,-1.427234 -0.08636,-2.44036 -0.259075,-3.039376 -0.172718,-0.59833 -0.621679,-1.036132 -1.347057,-1.312548 -0.725378,-0.276416 -1.940064,-0.425784 -3.643887,-0.448962 V 47.53028 l 14.160751,-2.970359 v 21.20679 c 0,1.934227 0.241736,3.258449 0.725378,3.971981 0.483471,0.714046 1.772841,1.07064 3.868282,1.07064 v 3.177757 z M 55.474506,31.05553 c 0,1.381566 -0.48948,2.561743 -1.467925,3.540188 -0.97896,0.97896 -2.158622,1.467924 -3.540188,1.467924 -1.358903,0 -2.538565,-0.500811 -3.540188,-1.502433 -1.001622,-1.001623 -1.502433,-2.169953 -1.502433,-3.505679 0,-1.381566 0.494802,-2.567237 1.485093,-3.557528 0.989776,-0.989776 2.175962,-1.485094 3.557528,-1.485094 1.404229,0 2.590415,0.483471 3.557528,1.450585 0.967114,0.967113 1.450585,2.16463 1.450585,3.592037 z"
     inkscape:connector-curvature="0"
     style="fill:#ffffff" /></svg>