<svg xmlns="http://www.w3.org/2000/svg" width="100" height="100">
  <circle cx="1320" cy="255.667" r="232.982" fill="none" stroke="#fff" stroke-width="29.123" transform="matrix(.16159 0 0 .16159 -163.296 8.687)"/>
  <path fill="#fff" d="M59.377 73.987H40.623V70.81h1.002c1.335 0 2.308-.184 2.918-.553.61-.368.984-.886 1.123-1.554.138-.668.207-1.646.207-2.936V55.509c0-1.427-.087-2.44-.26-3.04-.172-.598-.621-1.036-1.346-1.312-.726-.277-1.94-.426-3.644-.45V47.53l14.16-2.97v21.207c0 1.934.242 3.258.726 3.972.483.714 1.773 1.07 3.868 1.07v3.178zm-3.902-42.931c0 1.381-.49 2.561-1.468 3.54-.98.979-2.159 1.468-3.54 1.468-1.36 0-2.54-.501-3.54-1.503-1.002-1.001-1.503-2.17-1.503-3.505 0-1.382.495-2.568 1.485-3.558.99-.99 2.176-1.485 3.557-1.485 1.405 0 2.59.483 3.558 1.45.967.968 1.45 2.165 1.45 3.593z"/>
</svg>
