<?xml version="1.0" encoding="UTF-8" standalone="no"?>
<!-- Generator: Adobe Illustrator 15.0.0, SVG Export Plug-In . SVG Version: 6.00 Build 0)  -->

<svg
   xmlns:dc="http://purl.org/dc/elements/1.1/"
   xmlns:cc="http://creativecommons.org/ns#"
   xmlns:rdf="http://www.w3.org/1999/02/22-rdf-syntax-ns#"
   xmlns:svg="http://www.w3.org/2000/svg"
   xmlns="http://www.w3.org/2000/svg"
   xmlns:sodipodi="http://sodipodi.sourceforge.net/DTD/sodipodi-0.dtd"
   xmlns:inkscape="http://www.inkscape.org/namespaces/inkscape"
   version="1.1"
   id="Icons"
   x="0px"
   y="0px"
   width="90"
   height="90"
   viewBox="0 0 90 89.999999"
   xml:space="preserve"
   inkscape:version="0.48.4 r9939"
   sodipodi:docname="facebook.svg"><metadata
     id="metadata8"><rdf:RDF><cc:Work
         rdf:about=""><dc:format>image/svg+xml</dc:format><dc:type
           rdf:resource="http://purl.org/dc/dcmitype/StillImage" /></cc:Work></rdf:RDF></metadata><defs
     id="defs6" /><sodipodi:namedview
     pagecolor="#ffffff"
     bordercolor="#666666"
     borderopacity="1"
     objecttolerance="10"
     gridtolerance="10"
     guidetolerance="10"
     inkscape:pageopacity="0"
     inkscape:pageshadow="2"
     inkscape:window-width="723"
     inkscape:window-height="480"
     id="namedview4"
     showgrid="false"
     fit-margin-top="0"
     fit-margin-left="0"
     fit-margin-right="0"
     fit-margin-bottom="0"
     units="mm"
     inkscape:zoom="2.36"
     inkscape:cx="45"
     inkscape:cy="45"
     inkscape:window-x="154"
     inkscape:window-y="48"
     inkscape:window-maximized="0"
     inkscape:current-layer="Icons" /><path
     id="Facebook__x28_alt_x29_"
     d="M 90,15.000986 C 90,7.118986 82.884,-1.4042969e-5 75,-1.4042969e-5 H 15 C 7.116,-1.4042969e-5 0,7.118986 0,15.000986 v 59.998 c 0,7.882 7.116,15.001 15.001,15.001 H 45 v -34 H 34 v -15 h 11 v -5.844 c 0,-10.079 7.569,-19.156 16.875,-19.156 H 74 v 15 H 61.875 c -1.327,0 -2.875,1.611 -2.875,4.024 v 5.976 h 15 v 15 H 59 v 34 h 16 c 7.884,0 15,-7.119 15,-15.001 v -59.998 z"
     style="fill:#cccccc;fill-opacity:1"
     inkscape:connector-curvature="0" /></svg>