<svg xmlns="http://www.w3.org/2000/svg" width="100" height="100">
  <path fill="#fff" d="M27.874 84.71C22.441 81.948 14.067 73 11.51 67.22c-1.727-3.904-1.872-5.173-.945-8.267 1.405-4.687 3.318-6.295 10.035-8.434 6.51-2.072 9.928-5.052 13.93-12.143 3.506-6.213 7.08-8.421 9.583-5.92 1.344 1.345 1.442 2.232.565 5.09-.812 2.644-.759 3.876.225 5.22 1.171 1.603 2.183.88 11.293-8.07 5.503-5.407 10.845-11.422 11.87-13.365 1.363-2.584 2.439-3.47 4-3.292 1.176.133 2.393-.422 2.704-1.233.382-.996 1.335-1.28 2.94-.878 1.79.45 2.376.191 2.376-1.043 0-1.353.65-1.522 3.718-.97 4.41.795 6.196 2.034 6.196 4.3 0 2.432-2.008 4.043-5.038 4.043-1.852 0-3.43 1.01-5.202 3.336-1.4 1.834-3.795 3.601-5.323 3.926-3.69.785-25.347 23.62-24.498 25.832.438 1.141 1.874 1.473 5.7 1.318 5.062-.206 5.114-.178 5.114 2.752 0 2.62-.735 3.36-6.395 6.444-6.215 3.386-6.446 3.654-8.158 9.488-.97 3.302-2.844 7.02-4.165 8.26-3.445 3.237-9.086 3.673-14.16 1.095z"/>
</svg>
