<?xml version="1.0" encoding="UTF-8" standalone="no"?>
<!-- Created with Inkscape (http://www.inkscape.org/) -->

<svg
   xmlns:dc="http://purl.org/dc/elements/1.1/"
   xmlns:cc="http://creativecommons.org/ns#"
   xmlns:rdf="http://www.w3.org/1999/02/22-rdf-syntax-ns#"
   xmlns:svg="http://www.w3.org/2000/svg"
   xmlns="http://www.w3.org/2000/svg"
   xmlns:xlink="http://www.w3.org/1999/xlink"
   xmlns:sodipodi="http://sodipodi.sourceforge.net/DTD/sodipodi-0.dtd"
   xmlns:inkscape="http://www.inkscape.org/namespaces/inkscape"
   width="34.808338"
   height="31.658163"
   id="svg2"
   version="1.1"
   inkscape:version="0.48.4 r9939"
   sodipodi:docname="genres.svg">
  <defs
     id="defs4">
    <linearGradient
       id="linearGradient3811">
      <stop
         style="stop-color:#000000;stop-opacity:1;"
         offset="0"
         id="stop3813" />
      <stop
         style="stop-color:#ffffff;stop-opacity:1;"
         offset="1"
         id="stop3815" />
    </linearGradient>
    <linearGradient
       inkscape:collect="always"
       xlink:href="#linearGradient3811"
       id="linearGradient3817"
       x1="347.24408"
       y1="439.37006"
       x2="361.41733"
       y2="425.19684"
       gradientUnits="userSpaceOnUse"
       gradientTransform="matrix(1.6674399,0,0,1.6674389,-229.42956,-292.06247)" />
    <linearGradient
       inkscape:collect="always"
       xlink:href="#linearGradient3811-0"
       id="linearGradient3817-3"
       x1="347.24408"
       y1="439.37006"
       x2="361.41733"
       y2="425.19684"
       gradientUnits="userSpaceOnUse" />
    <linearGradient
       id="linearGradient3811-0">
      <stop
         style="stop-color:#ff0000;stop-opacity:1;"
         offset="0"
         id="stop3813-7" />
      <stop
         style="stop-color:#ffffff;stop-opacity:1;"
         offset="1"
         id="stop3815-3" />
    </linearGradient>
    <linearGradient
       gradientTransform="translate(-0.01303364,21.262036)"
       y2="425.19684"
       x2="361.41733"
       y1="439.37006"
       x1="347.24408"
       gradientUnits="userSpaceOnUse"
       id="linearGradient3866"
       xlink:href="#linearGradient3811-0"
       inkscape:collect="always" />
    <linearGradient
       inkscape:collect="always"
       xlink:href="#linearGradient3811"
       id="linearGradient3801"
       gradientUnits="userSpaceOnUse"
       x1="347.24408"
       y1="439.37006"
       x2="361.41733"
       y2="425.19684"
       gradientTransform="translate(-1.7871553,113.38802)" />
    <linearGradient
       inkscape:collect="always"
       xlink:href="#linearGradient3811-7"
       id="linearGradient3817-2"
       x1="347.24408"
       y1="439.37006"
       x2="361.41733"
       y2="425.19684"
       gradientUnits="userSpaceOnUse" />
    <linearGradient
       id="linearGradient3811-7">
      <stop
         style="stop-color:#000000;stop-opacity:1;"
         offset="0"
         id="stop3813-0" />
      <stop
         style="stop-color:#ffffff;stop-opacity:1;"
         offset="1"
         id="stop3815-2" />
    </linearGradient>
    <linearGradient
       inkscape:collect="always"
       xlink:href="#linearGradient3811"
       id="linearGradient3029"
       gradientUnits="userSpaceOnUse"
       gradientTransform="matrix(1.6674399,0,0,1.6674389,-229.42956,-292.06247)"
       x1="347.24408"
       y1="439.37006"
       x2="361.41733"
       y2="425.19684" />
    <linearGradient
       inkscape:collect="always"
       xlink:href="#linearGradient3811"
       id="linearGradient3111"
       gradientUnits="userSpaceOnUse"
       gradientTransform="matrix(4.630262,0,0,4.6302592,-1243.854,-1569.2909)"
       x1="347.24408"
       y1="439.37006"
       x2="361.41733"
       y2="425.19684" />
  </defs>
  <sodipodi:namedview
     id="base"
     pagecolor="#ffffff"
     bordercolor="#666666"
     borderopacity="1.0"
     inkscape:pageopacity="0.0"
     inkscape:pageshadow="2"
     inkscape:zoom="11.313708"
     inkscape:cx="32.937355"
     inkscape:cy="10.658352"
     inkscape:document-units="mm"
     inkscape:current-layer="layer1"
     showgrid="true"
     inkscape:window-width="1366"
     inkscape:window-height="717"
     inkscape:window-x="-2"
     inkscape:window-y="-3"
     inkscape:window-maximized="1"
     inkscape:snap-global="false"
     units="mm"
     fit-margin-top="0"
     fit-margin-left="0"
     fit-margin-bottom="0"
     fit-margin-right="0"
     inkscape:snap-bbox="true">
    <inkscape:grid
       type="xygrid"
       id="grid2991"
       empspacing="10"
       visible="true"
       enabled="true"
       snapvisiblegridlinesonly="true"
       empcolor="#ff1111"
       empopacity="0.29411765"
       spacingx="0.1mm"
       spacingy="0.1mm"
       units="mm"
       dotted="false"
       color="#0000ff"
       opacity="0.11764706"
       originx="-99.586528mm"
       originy="-163.89741mm" />
  </sodipodi:namedview>
  <metadata
     id="metadata7">
    <rdf:RDF>
      <cc:Work
         rdf:about="">
        <dc:format>image/svg+xml</dc:format>
        <dc:type
           rdf:resource="http://purl.org/dc/dcmitype/StillImage" />
      </cc:Work>
    </rdf:RDF>
  </metadata>
  <g
     inkscape:label="Layer 1"
     inkscape:groupmode="layer"
     id="layer1"
     transform="translate(-352.86565,-439.96512)">
    <path
       style="fill:#000000"
       d=""
       id="path3892"
       inkscape:connector-curvature="0" />
    <path
       style="fill:#000000"
       d=""
       id="path3886"
       inkscape:connector-curvature="0" />
    <path
       style="fill:#000000"
       d=""
       id="path3884"
       inkscape:connector-curvature="0" />
    <path
       style="fill:#000000"
       d=""
       id="path3882"
       inkscape:connector-curvature="0" />
    <path
       style="fill:#cccccc;fill-opacity:1"
       d="m 360.64286,470.89632 c -2.36428,-1.20096 -6.00779,-5.09505 -7.12023,-7.6099 -0.75128,-1.69838 -0.81435,-2.25042 -0.41099,-3.59675 0.61096,-2.03921 1.44363,-2.73901 4.3663,-3.66957 2.8322,-0.90178 4.31961,-2.19843 6.0607,-5.28348 1.52574,-2.70347 3.08096,-3.66413 4.16955,-2.57555 0.5848,0.58481 0.62767,0.97062 0.24601,2.21418 -0.35318,1.15078 -0.33013,1.68657 0.0978,2.27172 0.50976,0.69714 0.95003,0.38248 4.91371,-3.51176 2.39459,-2.35263 4.71871,-4.96947 5.16473,-5.81518 0.59287,-1.12417 1.06099,-1.50935 1.74077,-1.43235 0.51141,0.0579 1.04062,-0.18333 1.176,-0.53614 0.16635,-0.43352 0.58119,-0.55739 1.27962,-0.3821 0.7783,0.19535 1.03345,0.0832 1.03345,-0.45399 0,-0.58857 0.28298,-0.66237 1.61764,-0.42188 1.91934,0.34584 2.69607,0.88488 2.69607,1.87102 0,1.05799 -0.8735,1.75894 -2.19193,1.75894 -0.80608,0 -1.49217,0.43988 -2.26365,1.45135 -0.60885,0.79824 -1.651,1.56708 -2.31589,1.70853 -1.60576,0.34161 -11.02846,10.27711 -10.65923,11.23932 0.19064,0.49677 0.81525,0.64122 2.48003,0.57355 2.20266,-0.0895 2.22521,-0.0774 2.22521,1.19737 0,1.13975 -0.31996,1.46217 -2.78265,2.80392 -2.70401,1.47323 -2.80434,1.58993 -3.54953,4.12824 -0.42178,1.43669 -1.23727,3.05408 -1.81219,3.59418 -1.49902,1.40826 -3.9531,1.59798 -6.16124,0.47633 z"
       id="path4578"
       inkscape:connector-curvature="0" />
  </g>
</svg>
