<svg xmlns="http://www.w3.org/2000/svg" width="100" height="100">
  <path fill="#fff" fill-rule="evenodd" d="M49.998 10.988C27.91 10.988 10 28.896 10 50.989c0 17.672 11.46 32.664 27.357 37.954 2 .367 2.73-.868 2.73-1.928 0-.95-.034-3.465-.054-6.803C28.906 82.629 26.56 74.85 26.56 74.85c-1.819-4.62-4.442-5.851-4.442-5.851-3.631-2.482.275-2.432.275-2.432 4.014.283 6.127 4.123 6.127 4.123 3.568 6.112 9.362 4.347 11.64 3.324.365-2.586 1.398-4.349 2.54-5.348-8.882-1.01-18.22-4.441-18.22-19.77 0-4.368 1.56-7.935 4.118-10.732-.412-1.012-1.784-5.08.392-10.586 0 0 3.358-1.076 11 4.1 3.19-.888 6.612-1.33 10.014-1.348 3.396.018 6.818.46 10.014 1.349 7.636-5.177 10.99-4.101 10.99-4.101 2.18 5.505.808 9.574.397 10.586 2.563 2.797 4.111 6.364 4.111 10.733 0 15.366-9.352 18.747-18.263 19.737 1.436 1.236 2.716 3.677 2.716 7.408 0 5.348-.05 9.661-.05 10.973 0 1.07.721 2.314 2.75 1.924C78.55 83.639 90 68.656 90 50.989c0-22.093-17.91-40.001-40.002-40.001"/>
</svg>
