<?xml version="1.0" encoding="UTF-8" standalone="no"?>
<!-- Generator: Adobe Illustrator 15.0.0, SVG Export Plug-In . SVG Version: 6.00 Build 0)  -->

<svg
   xmlns:dc="http://purl.org/dc/elements/1.1/"
   xmlns:cc="http://creativecommons.org/ns#"
   xmlns:rdf="http://www.w3.org/1999/02/22-rdf-syntax-ns#"
   xmlns:svg="http://www.w3.org/2000/svg"
   xmlns="http://www.w3.org/2000/svg"
   xmlns:sodipodi="http://sodipodi.sourceforge.net/DTD/sodipodi-0.dtd"
   xmlns:inkscape="http://www.inkscape.org/namespaces/inkscape"
   version="1.1"
   id="Icons"
   x="0px"
   y="0px"
   width="100"
   height="100"
   viewBox="0 0 100 100"
   xml:space="preserve"
   inkscape:version="0.48.4 r9939"
   sodipodi:docname="github.svg"
   inkscape:export-filename="/home/damien/Projects/damien.git/SailfishOS/SomaFM/images/icons/icon-s-twitter.png"
   inkscape:export-xdpi="28.799999"
   inkscape:export-ydpi="28.799999"><metadata
     id="metadata8"><rdf:RDF><cc:Work
         rdf:about=""><dc:format>image/svg+xml</dc:format><dc:type
           rdf:resource="http://purl.org/dc/dcmitype/StillImage" /><dc:title></dc:title></cc:Work></rdf:RDF></metadata><defs
     id="defs6" /><sodipodi:namedview
     pagecolor="#ffffff"
     bordercolor="#666666"
     borderopacity="1"
     objecttolerance="10"
     gridtolerance="10"
     guidetolerance="10"
     inkscape:pageopacity="0"
     inkscape:pageshadow="2"
     inkscape:window-width="1366"
     inkscape:window-height="717"
     id="namedview4"
     showgrid="false"
     units="px"
     fit-margin-top="0"
     fit-margin-left="0"
     fit-margin-right="0"
     fit-margin-bottom="0"
     inkscape:zoom="1.668772"
     inkscape:cx="-69.555278"
     inkscape:cy="32.519822"
     inkscape:window-x="-2"
     inkscape:window-y="-3"
     inkscape:window-maximized="1"
     inkscape:current-layer="Icons" /><path
     id="path3015"
     style="fill:#ffffff;fill-opacity:1;fill-rule:evenodd;stroke:none"
     d="m 49.997702,10.988001 c -22.086503,0 -39.9978134,17.908365 -39.9978134,40.000995 0,17.672145 11.4605674,32.664295 27.3566144,37.954305 2.000786,0.36637 2.730813,-0.86805 2.730813,-1.92787 0,-0.94955 -0.03457,-3.46577 -0.05383,-6.8036 -11.12785,2.417 -13.47487,-5.36196 -13.47487,-5.36196 -1.818584,-4.62062 -4.441117,-5.8511 -4.441117,-5.8511 -3.631511,-2.48158 0.274295,-2.431732 0.274295,-2.431732 4.014342,0.283126 6.127338,4.122632 6.127338,4.122632 3.568177,6.11212 9.361814,4.34707 11.640805,3.32384 0.363678,-2.58521 1.39672,-4.3483 2.539044,-5.34771 -8.882234,-1.00997 -18.219965,-4.441116 -18.219965,-19.768938 0,-4.368432 1.559769,-7.936354 4.117967,-10.733232 -0.411571,-1.011688 -1.784207,-5.080544 0.392142,-10.585899 0,0 3.358217,-1.075533 10.999179,4.100778 3.190237,-0.888911 6.61281,-1.330911 10.014225,-1.3481 3.396544,0.01729 6.818841,0.459189 10.01401,1.3481 7.63605,-5.176311 10.989592,-4.100778 10.989592,-4.100778 2.181024,5.505355 0.808624,9.574211 0.398036,10.585899 2.562873,2.796878 4.11111,6.3648 4.11111,10.733232 0,15.366129 -9.352247,18.747428 -18.263202,19.737258 1.436009,1.23564 2.715608,3.67671 2.715608,7.40792 0,5.34771 -0.04911,9.66114 -0.04911,10.97339 0,1.06941 0.72046,2.31363 2.750242,1.92319 15.880311,-5.29958 27.331292,-20.2824 27.331292,-37.949625 0,-22.09263 -17.910073,-40.000995 -40.002468,-40.000995"
     inkscape:connector-curvature="0" /></svg>