<?xml version="1.0" encoding="UTF-8" standalone="no"?>
<!-- Generator: Adobe Illustrator 15.0.0, SVG Export Plug-In . SVG Version: 6.00 Build 0)  -->

<svg
   xmlns:dc="http://purl.org/dc/elements/1.1/"
   xmlns:cc="http://creativecommons.org/ns#"
   xmlns:rdf="http://www.w3.org/1999/02/22-rdf-syntax-ns#"
   xmlns:svg="http://www.w3.org/2000/svg"
   xmlns="http://www.w3.org/2000/svg"
   xmlns:sodipodi="http://sodipodi.sourceforge.net/DTD/sodipodi-0.dtd"
   xmlns:inkscape="http://www.inkscape.org/namespaces/inkscape"
   version="1.1"
   id="Icons"
   x="0px"
   y="0px"
   width="58.998001"
   height="90"
   viewBox="0 0 58.998001 89.999999"
   xml:space="preserve"
   inkscape:version="0.48.4 r9939"
   sodipodi:docname="google.svg"><metadata
     id="metadata8"><rdf:RDF><cc:Work
         rdf:about=""><dc:format>image/svg+xml</dc:format><dc:type
           rdf:resource="http://purl.org/dc/dcmitype/StillImage" /></cc:Work></rdf:RDF></metadata><defs
     id="defs6" /><sodipodi:namedview
     pagecolor="#ffffff"
     bordercolor="#666666"
     borderopacity="1"
     objecttolerance="10"
     gridtolerance="10"
     guidetolerance="10"
     inkscape:pageopacity="0"
     inkscape:pageshadow="2"
     inkscape:window-width="1366"
     inkscape:window-height="717"
     id="namedview4"
     showgrid="false"
     fit-margin-top="0"
     fit-margin-left="0"
     fit-margin-right="0"
     fit-margin-bottom="0"
     units="mm"
     inkscape:zoom="2.36"
     inkscape:cx="-37.577271"
     inkscape:cy="46.355933"
     inkscape:window-x="-2"
     inkscape:window-y="-3"
     inkscape:window-maximized="1"
     inkscape:current-layer="Icons" /><path
     id="Google"
     d="M 58.998,-4.9999999e-7 H 34.643 C 28.26,-4.9999999e-7 20.221,0.9419995 13.485,6.4899993 8.395,10.864 5.919,16.882 5.919,22.318 c 0,9.211 7.094,18.546 19.625,18.546 1.182,0 2.477,-0.12 3.787,-0.235 -0.592,1.413 -1.189,2.594 -1.189,4.605 0,3.663 1.893,5.903 3.547,8.03 C 26.375,53.616 16.441,54.206 9.107,58.692 2.132,62.834 0,68.852 0,73.106 0,81.846 8.277,90 25.422,90 45.758,90 56.52,78.78 56.52,67.67 56.52,59.528 51.79,55.506 46.588,51.136 L 42.33,47.831 c -1.295,-1.065 -3.068,-2.479 -3.068,-5.08 0,-2.597 1.773,-4.254 3.307,-5.789 4.963,-3.896 9.932,-8.03 9.932,-16.77 0,-8.979 -5.68,-13.7040007 -8.396,-15.9470007 h 7.334 L 58.998,-5e-7 z M 48.602,72.279 c 0,7.323 -6.033,12.753 -17.385,12.753 -12.648,0 -20.809,-6.024 -20.809,-14.405 0,-8.392 7.568,-11.218 10.166,-12.164 4.969,-1.656 11.352,-1.891 12.414,-1.891 1.184,0 1.775,0 2.725,0.116 8.988,6.377 12.889,9.569 12.889,15.591 z m -9.461,-38.03 c -1.893,1.886 -5.088,3.305 -8.045,3.305 -10.164,0 -14.773,-13.113 -14.773,-21.023001 0,-3.071999 0.592,-6.258 2.598,-8.7399997 1.893,-2.362 5.201,-3.8989998 8.277,-3.8989998 9.811,0 14.9,13.2289995 14.9,21.7300005 0,2.13 -0.241,5.906 -2.957,8.627 z"
     inkscape:connector-curvature="0"
     style="fill:#cccccc;fill-opacity:1" /></svg>