<svg xmlns="http://www.w3.org/2000/svg" width="100" height="100">
  <path fill="#fff" d="M76.222 10h-21.65c-5.673 0-12.82.837-18.807 5.769-4.524 3.888-6.725 9.237-6.725 14.07 0 8.187 6.306 16.485 17.444 16.485 1.051 0 2.202-.107 3.367-.21-.527 1.257-1.057 2.306-1.057 4.094 0 3.256 1.682 5.247 3.153 7.138-4.724.313-13.554.837-20.073 4.825-6.2 3.682-8.096 9.03-8.096 12.812 0 7.77 7.358 15.017 22.598 15.017 18.077 0 27.643-9.973 27.643-19.849 0-7.237-4.205-10.812-8.829-14.697l-3.785-2.938c-1.15-.946-2.727-2.203-2.727-4.515 0-2.309 1.576-3.781 2.94-5.146 4.411-3.463 8.828-7.138 8.828-14.907 0-7.981-5.049-12.181-7.463-14.175h6.52L76.221 10zM66.98 74.248c0 6.51-5.363 11.336-15.454 11.336-11.243 0-18.497-5.354-18.497-12.804 0-7.46 6.727-9.972 9.037-10.813 4.417-1.472 10.09-1.68 11.034-1.68 1.053 0 1.578 0 2.423.102 7.989 5.669 11.457 8.506 11.457 13.86zm-8.41-33.805c-1.683 1.677-4.523 2.938-7.151 2.938-9.035 0-13.132-11.656-13.132-18.687 0-2.73.526-5.563 2.31-7.769 1.682-2.1 4.622-3.466 7.357-3.466 8.72 0 13.244 11.76 13.244 19.316 0 1.893-.214 5.25-2.628 7.668z"/>
</svg>
