<?xml version="1.0" encoding="UTF-8" standalone="no"?>
<!-- Generator: Adobe Illustrator 15.0.0, SVG Export Plug-In . SVG Version: 6.00 Build 0)  -->

<svg
   xmlns:dc="http://purl.org/dc/elements/1.1/"
   xmlns:cc="http://creativecommons.org/ns#"
   xmlns:rdf="http://www.w3.org/1999/02/22-rdf-syntax-ns#"
   xmlns:svg="http://www.w3.org/2000/svg"
   xmlns="http://www.w3.org/2000/svg"
   xmlns:sodipodi="http://sodipodi.sourceforge.net/DTD/sodipodi-0.dtd"
   xmlns:inkscape="http://www.inkscape.org/namespaces/inkscape"
   version="1.1"
   id="Icons"
   x="0px"
   y="0px"
   width="100"
   height="100"
   viewBox="0 0 100 99.999998"
   xml:space="preserve"
   inkscape:version="0.48.4 r9939"
   sodipodi:docname="google.svg"
   inkscape:export-filename="/home/damien/Projects/damien.git/SailfishOS/SomaFM/images/icons/icon-s-google.png"
   inkscape:export-xdpi="28.799999"
   inkscape:export-ydpi="28.799999"><metadata
     id="metadata8"><rdf:RDF><cc:Work
         rdf:about=""><dc:format>image/svg+xml</dc:format><dc:type
           rdf:resource="http://purl.org/dc/dcmitype/StillImage" /><dc:title></dc:title></cc:Work></rdf:RDF></metadata><defs
     id="defs6" /><sodipodi:namedview
     pagecolor="#ffffff"
     bordercolor="#666666"
     borderopacity="1"
     objecttolerance="10"
     gridtolerance="10"
     guidetolerance="10"
     inkscape:pageopacity="0"
     inkscape:pageshadow="2"
     inkscape:window-width="1366"
     inkscape:window-height="717"
     id="namedview4"
     showgrid="false"
     fit-margin-top="0"
     fit-margin-left="0"
     fit-margin-right="0"
     fit-margin-bottom="0"
     units="px"
     inkscape:zoom="2.36"
     inkscape:cx="-93.933203"
     inkscape:cy="46.355933"
     inkscape:window-x="-2"
     inkscape:window-y="-3"
     inkscape:window-maximized="1"
     inkscape:current-layer="Icons" /><path
     id="Google"
     d="M 76.2215,9.9997445 H 54.572474 c -5.673814,0 -12.819638,0.8373375 -18.807231,5.7689245 -4.524473,3.888026 -6.725376,9.237393 -6.725376,14.069424 0,8.187608 6.305818,16.485439 17.444555,16.485439 1.050673,0 2.201792,-0.106668 3.366244,-0.20889 -0.526226,1.256008 -1.056896,2.305792 -1.056896,4.093359 0,3.25602 1.682677,5.247144 3.152909,7.137823 -4.723586,0.312891 -13.553864,0.837339 -20.073016,4.824919 -6.20004,3.681801 -8.095163,9.03117 -8.095163,12.812527 0,7.768938 7.35738,15.016984 22.597477,15.016984 18.076559,0 27.642842,-9.973397 27.642842,-19.849015 0,-7.23738 -4.204471,-10.812513 -8.8285,-14.696982 L 61.405406,52.51646 c -1.151119,-0.946672 -2.727129,-2.203569 -2.727129,-4.515584 0,-2.308459 1.57601,-3.781357 2.939575,-5.14581 4.411583,-3.463133 8.8285,-7.137823 8.8285,-14.906762 0,-7.981384 -5.048921,-12.181411 -7.463158,-14.175202 h 6.519152 L 76.2215,9.9997445 z M 66.980552,74.248153 c 0,6.509376 -5.3627,11.336073 -15.453431,11.336073 -11.242738,0 -18.497007,-5.354702 -18.497007,-12.804526 0,-7.459603 6.727154,-9.971619 9.036502,-10.812513 4.416917,-1.472009 10.090731,-1.680899 11.034737,-1.680899 1.052451,0 1.577788,0 2.422238,0.103111 7.989384,5.668481 11.456961,8.505832 11.456961,13.858755 z M 58.570721,40.443494 c -1.682677,1.676455 -4.522695,2.937796 -7.151156,2.937796 -9.034725,0 -13.131639,-11.656073 -13.131639,-18.687231 0,-2.730683 0.526225,-5.562702 2.309348,-7.768938 1.682677,-2.099569 4.62314,-3.4658 7.35738,-3.4658 8.720944,0 13.244528,11.759186 13.244528,19.31568 0,1.893345 -0.214223,5.249811 -2.628461,7.668493 z"
     inkscape:connector-curvature="0"
     style="fill:#ffffff;fill-opacity:1" /></svg>