<svg xmlns="http://www.w3.org/2000/svg" width="100" height="100">
  <g fill="#fff">
    <path d="M71.815 59.99c0 16.574-9.77 30.01-21.823 30.01C37.94 90 28.17 76.564 28.17 59.99c0-16.575 9.77-30.012 21.822-30.012S71.815 43.415 71.815 59.99z"/>
    <path d="M49.968 10C31.89 10 17.249 26.778 17.249 47.496h-3.656c-2.015 0-3.593 1.882-3.593 4.191v16.69c0 2.309 1.578 4.117 3.593 4.117h10.97V47.497h-.064c0-16.115 11.408-29.115 25.469-29.115 14.06 0 25.47 13 25.47 29.114v24.998H86.406c2.015 0 3.593-1.808 3.593-4.118V51.687c0-2.31-1.578-4.19-3.593-4.19h-3.72C82.686 26.777 68.046 10 49.967 10z"/>
  </g>
</svg>
