<svg xmlns="http://www.w3.org/2000/svg" width="100" height="100">
  <g fill="#fff">
    <path d="M15.344 20C12.388 20 10 22.277 10 25.125v2C10 24.277 12.388 22 15.344 22h69.312C87.612 22 90 24.277 90 27.125v-2C90 22.277 87.612 20 84.656 20H15.344zM10 40v34.875C10 77.723 12.388 80 15.344 80h69.312C87.612 80 90 77.723 90 74.875V40L50 70 10 40z" overflow="visible" style="marker:none"/>
    <path d="M15.344 20C12.388 20 10 22.277 10 25.125V30l40 30 40-30v-4.875C90 22.277 87.612 20 84.656 20H15.344z" overflow="visible" style="marker:none"/>
  </g>
</svg>
