<svg xmlns="http://www.w3.org/2000/svg" width="100" height="100">
  <g fill="#fff" transform="matrix(-2.5098 0 0 2.41814 979.332 -1059.56)">
    <path d="M356.468 446.443a2.12 2.12 0 0 0-2.125 2.125v20.563a2.12 2.12 0 0 0 2.125 2.125h27.625a2.12 2.12 0 0 0 2.125-2.125v-20.563a2.12 2.12 0 0 0-2.125-2.125h-27.625zm1.469 1.782h24.687c.982 0 1.782.8 1.782 1.78v17.72c0 .981-.8 1.75-1.782 1.75h-24.687c-.982 0-1.781-.769-1.781-1.75v-17.72c0-.98.8-1.78 1.78-1.78z"/>
    <rect width="12.402" height="9.213" x="357.874" y="450" rx="0" ry="0"/>
    <rect width="10.63" height="2.126" x="372.047" y="457.087" rx="0" ry="0"/>
    <rect width="24.803" height="2.126" x="357.874" y="464.528" rx="0" ry="0"/>
    <rect width="24.803" height="2.126" x="357.874" y="460.984" rx="0" ry="0"/>
    <rect width="10.63" height="2.126" x="372.047" y="453.543" rx="0" ry="0"/>
    <rect width="10.63" height="2.126" x="372.047" y="450" rx="0" ry="0"/>
  </g>
</svg>
