<svg xmlns="http://www.w3.org/2000/svg" width="100" height="100">
  <path fill="#fff" d="M46.938 10c-1.694 0-3.094 1.405-3.094 3.094v3.687c0 1.696-1.32 3.47-2.938 3.969l-5.156 2.125c-1.498.8-3.676.48-4.875-.719l-2.625-2.625a3.075 3.075 0 0 0-4.344 0l-4.343 4.375a3.068 3.068 0 0 0 0 4.344l2.593 2.625c1.202 1.198 1.526 3.385.719 4.875l-2.125 5.156c-.508 1.615-2.273 2.938-3.969 2.938h-3.687c-1.692 0-3.094 1.369-3.094 3.062v6.157a3.114 3.114 0 0 0 3.094 3.093h3.687c1.696.004 3.469 1.326 3.969 2.938l2.125 5.156c.805 1.494.483 3.685-.719 4.875l-2.625 2.625a3.12 3.12 0 0 0 0 4.375l4.375 4.344a3.078 3.078 0 0 0 4.344 0l2.625-2.625c1.192-1.192 3.39-1.526 4.875-.719l5.156 2.125c1.618.506 2.938 2.307 2.938 4v3.688c0 1.689 1.4 3.062 3.093 3.062h6.157a3.062 3.062 0 0 0 3.062-3.063V83.25c0-1.693 1.327-3.494 2.938-4l5.156-2.125c1.488-.807 3.709-.473 4.906.719l2.594 2.625a3.078 3.078 0 0 0 4.344 0l4.375-4.344a3.113 3.113 0 0 0 0-4.375l-2.625-2.625c-1.188-1.19-1.516-3.38-.719-4.875l2.125-5.156c.504-1.612 2.316-2.938 4-2.938h3.688A3.057 3.057 0 0 0 90 53.094v-6.188a3.06 3.06 0 0 0-3.063-3.062H83.25c-1.694 0-3.496-1.322-4-2.938l-2.125-5.156c-.797-1.49-.47-3.678.719-4.875l2.625-2.625a3.075 3.075 0 0 0 0-4.344l-4.375-4.375a3.075 3.075 0 0 0-4.344 0l-2.625 2.625c-1.19 1.196-3.38 1.52-4.875.719l-5.156-2.125c-1.612-.5-2.938-2.273-2.938-3.969v-3.687c0-1.69-1.4-3.094-3.093-3.094h-6.126zM50 30c11.046 0 20 8.954 20 20s-8.954 20-20 20-20-8.954-20-20 8.954-20 20-20z"/>
</svg>
