<?xml version="1.0" encoding="UTF-8" standalone="no"?>
<!-- Generator: Adobe Illustrator 15.0.0, SVG Export Plug-In . SVG Version: 6.00 Build 0)  -->

<svg
   xmlns:dc="http://purl.org/dc/elements/1.1/"
   xmlns:cc="http://creativecommons.org/ns#"
   xmlns:rdf="http://www.w3.org/1999/02/22-rdf-syntax-ns#"
   xmlns:svg="http://www.w3.org/2000/svg"
   xmlns="http://www.w3.org/2000/svg"
   xmlns:sodipodi="http://sodipodi.sourceforge.net/DTD/sodipodi-0.dtd"
   xmlns:inkscape="http://www.inkscape.org/namespaces/inkscape"
   version="1.1"
   id="Icons"
   x="0px"
   y="0px"
   width="100"
   height="100"
   viewBox="0 0 100 100"
   xml:space="preserve"
   inkscape:version="0.48.4 r9939"
   sodipodi:docname="settings.svg"
   inkscape:export-filename="/home/damien/Projects/damien.git/SailfishOS/SomaFM/images/icons/icon-s-settings.png"
   inkscape:export-xdpi="28.799999"
   inkscape:export-ydpi="28.799999"><metadata
     id="metadata8"><rdf:RDF><cc:Work
         rdf:about=""><dc:format>image/svg+xml</dc:format><dc:type
           rdf:resource="http://purl.org/dc/dcmitype/StillImage" /><dc:title></dc:title></cc:Work></rdf:RDF></metadata><defs
     id="defs6" /><sodipodi:namedview
     pagecolor="#ffffff"
     bordercolor="#666666"
     borderopacity="1"
     objecttolerance="10"
     gridtolerance="10"
     guidetolerance="10"
     inkscape:pageopacity="0"
     inkscape:pageshadow="2"
     inkscape:window-width="1366"
     inkscape:window-height="717"
     id="namedview4"
     showgrid="false"
     units="px"
     fit-margin-top="0"
     fit-margin-left="0"
     fit-margin-right="0"
     fit-margin-bottom="0"
     inkscape:zoom="3.1006632"
     inkscape:cx="13.296307"
     inkscape:cy="53.63022"
     inkscape:window-x="-2"
     inkscape:window-y="-3"
     inkscape:window-maximized="1"
     inkscape:current-layer="Icons"
     inkscape:snap-bbox="true"><inkscape:grid
       type="xygrid"
       id="grid2982"
       units="px"
       empspacing="10"
       visible="true"
       enabled="true"
       snapvisiblegridlinesonly="true"
       spacingx="1px"
       spacingy="1px" /></sodipodi:namedview><path
     style="fill:#ffffff"
     d="m 46.9375,10 c -1.693658,0 -3.09375,1.404647 -3.09375,3.09375 l 0,3.6875 c 0,1.695555 -1.320151,3.468836 -2.9375,3.96875 L 35.75,22.875 c -1.497836,0.800648 -3.675665,0.480539 -4.875,-0.71875 l -2.625,-2.625 c -1.197371,-1.197325 -3.150306,-1.197325 -4.34375,0 l -4.34375,4.375 c -1.201299,1.195361 -1.201299,3.146145 0,4.34375 l 2.59375,2.625 c 1.201299,1.197605 1.52532,3.384796 0.71875,4.875 l -2.125,5.15625 c -0.508069,1.615042 -2.273129,2.9375 -3.96875,2.9375 l -3.6875,0 C 11.402337,43.843767 10,45.212939 10,46.90625 l 0,6.15625 c 0,1.694995 1.402337,3.09375 3.09375,3.09375 l 3.6875,0 c 1.695621,0.0039 3.468536,1.325824 3.96875,2.9375 L 22.875,64.25 c 0.804606,1.494131 0.48283,3.68525 -0.71875,4.875 l -2.625,2.625 c -1.193724,1.201533 -1.193724,3.175992 0,4.375 l 4.375,4.34375 c 1.193443,1.195642 3.146379,1.195642 4.34375,0 l 2.625,-2.625 c 1.191761,-1.191434 3.39091,-1.525289 4.875,-0.71875 l 5.15625,2.125 c 1.617349,0.505806 2.9375,2.306689 2.9375,4 l 0,3.6875 c 0,1.689385 1.400373,3.0625 3.09375,3.0625 l 6.15625,0 c 1.693658,0 3.0625,-1.372835 3.0625,-3.0625 l 0,-3.6875 c 0,-1.693311 1.326323,-3.494194 2.9375,-4 L 64.25,77.125 c 1.488297,-0.806539 3.708878,-0.472684 4.90625,0.71875 l 2.59375,2.625 c 1.197652,1.195642 3.148343,1.195642 4.34375,0 l 4.375,-4.34375 c 1.197652,-1.199008 1.197652,-3.173467 0,-4.375 l -2.625,-2.625 C 76.655917,67.93553 76.328248,65.744412 77.125,64.25 l 2.125,-5.15625 c 0.503861,-1.611395 2.316161,-2.9375 4,-2.9375 l 3.6875,0 c 1.695621,0 3.0625,-1.366944 3.0625,-3.0625 l 0,-6.1875 c -2.81e-4,-1.692751 -1.366879,-3.0625 -3.0625,-3.0625 l -3.6875,0 c -1.693657,0 -3.496139,-1.322177 -4,-2.9375 L 77.125,35.75 c -0.797032,-1.490484 -0.469083,-3.677675 0.71875,-4.875 l 2.625,-2.625 c 1.197652,-1.201252 1.197652,-3.148389 0,-4.34375 l -4.375,-4.375 c -1.195408,-1.197325 -3.146098,-1.197325 -4.34375,0 l -2.625,2.625 C 67.935484,23.351611 65.74447,23.675648 64.25,22.875 L 59.09375,20.75 c -1.611457,-0.499914 -2.9375,-2.273475 -2.9375,-3.96875 l 0,-3.6875 C 56.15625,11.404366 54.756157,10 53.0625,10 l -6.125,0 z M 50,30 C 61.045697,30 70,38.954303 70,50 70,61.045697 61.045697,70 50,70 38.954303,70 30,61.045697 30,50 30,38.954303 38.954303,30 50,30 z"
     id="path3220"
     inkscape:connector-curvature="0" /></svg>