<svg xmlns="http://www.w3.org/2000/svg" width="100" height="100">
  <g fill="#fff" font-family="Source Sans Pro" font-size="40" font-weight="400" letter-spacing="0" style="line-height:125%;-inkscape-font-specification:Source Sans Pro" word-spacing="0">
    <path d="M10 61.792c0 2.086 1.564 3.593 3.476 3.593 1.855 0 3.42-1.507 3.42-3.593 0-2.202-1.565-3.708-3.42-3.708-1.912 0-3.476 1.506-3.476 3.708M29.994 62.14c2.608 2.028 5.215 3.245 7.823 3.245 6.432 0 12.169-5.621 12.169-15.182 0-8.75-3.883-14.37-11.126-14.37-3.303 0-6.432 1.795-8.982 3.94h-.174l-.405-3.246h-3.94v40.041h4.75v-9.503l-.115-4.925m.116-3.709V43.655c2.781-2.492 5.157-3.825 7.533-3.825 5.331 0 7.417 4.173 7.417 10.373 0 6.953-3.419 11.183-8.055 11.183-1.854 0-4.346-.81-6.895-2.955M57.5 59.01c0 4.115 1.45 6.375 5.042 6.375 1.275 0 2.086-.174 2.723-.464l-.637-3.592c-.522.115-.753.115-1.043.115-.696 0-1.333-.579-1.333-2.086V23.432H57.5V59.01M69.198 61.502c2.665 2.202 6.49 3.883 10.488 3.883C86.35 65.385 90 61.56 90 56.983c0-5.332-4.52-7.012-8.576-8.519-3.187-1.216-6.258-2.26-6.258-4.867 0-2.144 1.623-4.056 5.157-4.056 2.492 0 4.52 1.043 6.432 2.491l2.26-3.013c-2.144-1.738-5.215-3.187-8.75-3.187-6.084 0-9.677 3.477-9.677 7.997 0 4.751 4.404 6.664 8.402 8.112 3.072 1.16 6.433 2.434 6.433 5.331 0 2.434-1.855 4.404-5.563 4.404-3.361 0-5.853-1.39-8.287-3.36l-2.375 3.186"/>
  </g>
</svg>
