<?xml version="1.0" encoding="UTF-8" standalone="no"?>
<!-- Generator: Adobe Illustrator 15.0.0, SVG Export Plug-In . SVG Version: 6.00 Build 0)  -->

<svg
   xmlns:dc="http://purl.org/dc/elements/1.1/"
   xmlns:cc="http://creativecommons.org/ns#"
   xmlns:rdf="http://www.w3.org/1999/02/22-rdf-syntax-ns#"
   xmlns:svg="http://www.w3.org/2000/svg"
   xmlns="http://www.w3.org/2000/svg"
   xmlns:sodipodi="http://sodipodi.sourceforge.net/DTD/sodipodi-0.dtd"
   xmlns:inkscape="http://www.inkscape.org/namespaces/inkscape"
   version="1.1"
   id="Icons"
   x="0px"
   y="0px"
   width="100"
   height="100"
   viewBox="0 0 100 100"
   xml:space="preserve"
   inkscape:version="0.48.4 r9939"
   sodipodi:docname="stream.svg"
   inkscape:export-filename="/home/damien/Projects/damien.git/SailfishOS/SomaFM/images/icons/icon-s-stream.png"
   inkscape:export-xdpi="28.799999"
   inkscape:export-ydpi="28.799999"><metadata
     id="metadata8"><rdf:RDF><cc:Work
         rdf:about=""><dc:format>image/svg+xml</dc:format><dc:type
           rdf:resource="http://purl.org/dc/dcmitype/StillImage" /><dc:title></dc:title></cc:Work></rdf:RDF></metadata><defs
     id="defs6" /><sodipodi:namedview
     pagecolor="#ffffff"
     bordercolor="#666666"
     borderopacity="1"
     objecttolerance="10"
     gridtolerance="10"
     guidetolerance="10"
     inkscape:pageopacity="0"
     inkscape:pageshadow="2"
     inkscape:window-width="1366"
     inkscape:window-height="717"
     id="namedview4"
     showgrid="false"
     units="px"
     fit-margin-top="0"
     fit-margin-left="0"
     fit-margin-right="0"
     fit-margin-bottom="0"
     inkscape:zoom="2.8284272"
     inkscape:cx="68.364042"
     inkscape:cy="77.515548"
     inkscape:window-x="-2"
     inkscape:window-y="-3"
     inkscape:window-maximized="1"
     inkscape:current-layer="Icons"
     inkscape:snap-bbox="true"><inkscape:grid
       type="xygrid"
       id="grid2982"
       units="px"
       empspacing="10"
       visible="true"
       enabled="true"
       snapvisiblegridlinesonly="true"
       spacingx="1px"
       spacingy="1px" /></sodipodi:namedview><g
     style="font-size:40px;font-style:normal;font-variant:normal;font-weight:normal;font-stretch:normal;line-height:125%;letter-spacing:0px;word-spacing:0px;fill:#ffffff;fill-opacity:1;stroke:none;font-family:Source Sans Pro;-inkscape-font-specification:Source Sans Pro"
     id="text2984"
     transform="matrix(1.4486641,0,0,1.4486641,-225.27228,92.939915)"><path
       d="m 162.40614,-21.501043 c 0,1.439998 1.08,2.48 2.4,2.48 1.28,0 2.36,-1.040002 2.36,-2.48 0,-1.519999 -1.08,-2.56 -2.36,-2.56 -1.32,0 -2.4,1.040001 -2.4,2.56"
       id="path2989"
       inkscape:connector-curvature="0"
       style="fill:#ffffff" /><path
       d="m 176.20801,-21.261043 c 1.8,1.399998 3.6,2.24 5.4,2.24 4.44,0 8.4,-3.880007 8.4,-10.48 0,-6.039994 -2.68,-9.92 -7.68,-9.92 -2.28,0 -4.44,1.240001 -6.2,2.72 l -0.12,0 -0.28,-2.24 -2.72,0 0,27.64 3.28,0 0,-6.56 -0.08,-3.4 m 0.08,-2.56 0,-10.2 c 1.92,-1.719999 3.56,-2.64 5.2,-2.64 3.68,0 5.12,2.880004 5.12,7.16 0,4.799995 -2.36,7.72 -5.56,7.72 -1.28,0 -3,-0.560002 -4.76,-2.04"
       id="path2991"
       inkscape:connector-curvature="0"
       style="fill:#ffffff" /><path
       d="m 195.19551,-23.421043 c 0,2.839997 1,4.4 3.48,4.4 0.88,0 1.44,-0.120001 1.88,-0.32 l -0.44,-2.48 c -0.36,0.08 -0.52,0.08 -0.72,0.08 -0.48,0 -0.92,-0.400001 -0.92,-1.44 l 0,-24.8 -3.28,0 0,24.56"
       id="path2993"
       inkscape:connector-curvature="0"
       style="fill:#ffffff" /><path
       d="m 203.26989,-21.701043 c 1.84,1.519998 4.48,2.68 7.24,2.68 4.59999,0 7.12,-2.640003 7.12,-5.8 0,-3.679997 -3.12001,-4.840001 -5.92,-5.88 -2.2,-0.839999 -4.32,-1.560002 -4.32,-3.36 0,-1.479999 1.12,-2.8 3.56,-2.8 1.72,0 3.12,0.720001 4.44,1.72 l 1.56,-2.08 c -1.48,-1.199999 -3.60001,-2.2 -6.04,-2.2 -4.2,0 -6.68,2.400003 -6.68,5.52 0,3.279996 3.04,4.600001 5.8,5.6 2.11999,0.799999 4.44,1.680002 4.44,3.68 0,1.679998 -1.28001,3.04 -3.84,3.04 -2.32,0 -4.04,-0.960002 -5.72,-2.32 l -1.64,2.2"
       id="path2995"
       inkscape:connector-curvature="0"
       style="fill:#ffffff" /></g></svg>