<?xml version="1.0" encoding="UTF-8" standalone="no"?>
<!-- Generator: Adobe Illustrator 15.0.0, SVG Export Plug-In . SVG Version: 6.00 Build 0)  -->

<svg
   xmlns:dc="http://purl.org/dc/elements/1.1/"
   xmlns:cc="http://creativecommons.org/ns#"
   xmlns:rdf="http://www.w3.org/1999/02/22-rdf-syntax-ns#"
   xmlns:svg="http://www.w3.org/2000/svg"
   xmlns="http://www.w3.org/2000/svg"
   xmlns:sodipodi="http://sodipodi.sourceforge.net/DTD/sodipodi-0.dtd"
   xmlns:inkscape="http://www.inkscape.org/namespaces/inkscape"
   version="1.1"
   id="Icons"
   x="0px"
   y="0px"
   width="100"
   height="100"
   viewBox="0 0 100 100"
   xml:space="preserve"
   inkscape:version="0.48.4 r9939"
   sodipodi:docname="timer.svg"
   inkscape:export-filename="/home/damien/Projects/damien.git/SailfishOS/SomaFM/images/icons/icon-l-timer.png"
   inkscape:export-xdpi="86.400002"
   inkscape:export-ydpi="86.400002"><metadata
     id="metadata8"><rdf:RDF><cc:Work
         rdf:about=""><dc:format>image/svg+xml</dc:format><dc:type
           rdf:resource="http://purl.org/dc/dcmitype/StillImage" /><dc:title></dc:title></cc:Work></rdf:RDF></metadata><defs
     id="defs6" /><sodipodi:namedview
     pagecolor="#ffffff"
     bordercolor="#666666"
     borderopacity="1"
     objecttolerance="10"
     gridtolerance="10"
     guidetolerance="10"
     inkscape:pageopacity="0"
     inkscape:pageshadow="2"
     inkscape:window-width="1366"
     inkscape:window-height="717"
     id="namedview4"
     showgrid="true"
     units="px"
     fit-margin-top="0"
     fit-margin-left="0"
     fit-margin-right="0"
     fit-margin-bottom="0"
     inkscape:zoom="3.1006632"
     inkscape:cx="42.953354"
     inkscape:cy="64.974899"
     inkscape:window-x="-2"
     inkscape:window-y="-3"
     inkscape:window-maximized="1"
     inkscape:current-layer="Icons"
     inkscape:snap-bbox="true"
     inkscape:snap-global="true"><inkscape:grid
       type="xygrid"
       id="grid2982"
       units="px"
       empspacing="10"
       visible="true"
       enabled="true"
       snapvisiblegridlinesonly="true"
       spacingx="1px"
       spacingy="1px" /></sodipodi:namedview><g
     id="g3086"
     style="fill:#ffffff"
     transform="translate(0,0.5)"><path
       sodipodi:nodetypes="cccsssccsssc"
       inkscape:connector-curvature="0"
       id="path3071"
       d="m 58,21.09375 0,3.671875 0,3.671875 C 66.757457,31.687685 73,40.111475 73,50 73,62.702549 62.702549,73 50,73 37.297451,73 27,62.702549 27,50 c 0,-1.720915 0.204121,-3.386998 0.5625,-5 l -7.125,0 C 20.163251,46.630209 20,48.291821 20,50 20,66.568543 33.431457,80 50,80 66.568543,80 80,66.568543 80,50 80,36.205546 70.679582,24.598118 58,21.09375 z"
       style="color:#000000;fill:#ffffff;fill-opacity:1;fill-rule:nonzero;marker:none;visibility:visible;display:inline;overflow:visible;enable-background:accumulate" /><path
       transform="matrix(1.25,0,0,1.25,-15,-7.25)"
       d="m 56,25 c 0,2.209139 -1.790861,4 -4,4 -2.209139,0 -4,-1.790861 -4,-4 0,-2.209139 1.790861,-4 4,-4 2.209139,0 4,1.790861 4,4 z"
       sodipodi:ry="4"
       sodipodi:rx="4"
       sodipodi:cy="25"
       sodipodi:cx="52"
       id="path3082"
       style="color:#000000;fill:#ffffff;fill-opacity:1;fill-rule:nonzero;marker:none;visibility:visible;display:inline;overflow:visible;enable-background:accumulate"
       sodipodi:type="arc" /><rect
       transform="matrix(0.70710678,-0.70710678,0.70710678,0.70710678,0,0)"
       rx="3.5"
       ry="3.5"
       y="38.499069"
       x="-3.5"
       height="35"
       width="7"
       id="rect3084"
       style="color:#000000;fill:#ffffff;fill-opacity:1;fill-rule:nonzero;marker:none;visibility:visible;display:inline;overflow:visible;enable-background:accumulate" /></g></svg>