<svg xmlns="http://www.w3.org/2000/svg" width="100" height="100">
  <g fill="#fff" transform="translate(0 .5)">
    <path d="M58 21.094v7.344C66.757 31.688 73 40.11 73 50c0 12.703-10.297 23-23 23S27 62.703 27 50c0-1.72.204-3.387.563-5h-7.125A30.04 30.04 0 0 0 20 50c0 16.569 13.431 30 30 30 16.569 0 30-13.431 30-30 0-13.794-9.32-25.402-22-28.906z" overflow="visible" style="marker:none"/>
    <path d="M55 24a5 5 0 1 1-10 0 5 5 0 0 1 10 0z" />
    <rect width="7" height="35" x="-3.5" y="38.499" rx="3.5" ry="3.5" transform="rotate(-45)"/>
  </g>
</svg>
