<?xml version="1.0" encoding="UTF-8" standalone="no"?>
<!-- Generator: Adobe Illustrator 15.0.0, SVG Export Plug-In . SVG Version: 6.00 Build 0)  -->

<svg
   xmlns:dc="http://purl.org/dc/elements/1.1/"
   xmlns:cc="http://creativecommons.org/ns#"
   xmlns:rdf="http://www.w3.org/1999/02/22-rdf-syntax-ns#"
   xmlns:svg="http://www.w3.org/2000/svg"
   xmlns="http://www.w3.org/2000/svg"
   xmlns:sodipodi="http://sodipodi.sourceforge.net/DTD/sodipodi-0.dtd"
   xmlns:inkscape="http://www.inkscape.org/namespaces/inkscape"
   version="1.1"
   id="Icons"
   x="0px"
   y="0px"
   width="90"
   height="62.001469"
   viewBox="0 0 90 62.001469"
   xml:space="preserve"
   inkscape:version="0.48.4 r9939"
   sodipodi:docname="twitter.svg"><metadata
     id="metadata8"><rdf:RDF><cc:Work
         rdf:about=""><dc:format>image/svg+xml</dc:format><dc:type
           rdf:resource="http://purl.org/dc/dcmitype/StillImage" /></cc:Work></rdf:RDF></metadata><defs
     id="defs6" /><sodipodi:namedview
     pagecolor="#ffffff"
     bordercolor="#666666"
     borderopacity="1"
     objecttolerance="10"
     gridtolerance="10"
     guidetolerance="10"
     inkscape:pageopacity="0"
     inkscape:pageshadow="2"
     inkscape:window-width="723"
     inkscape:window-height="480"
     id="namedview4"
     showgrid="false"
     units="mm"
     fit-margin-top="0"
     fit-margin-left="0"
     fit-margin-right="0"
     fit-margin-bottom="0"
     inkscape:zoom="2.36"
     inkscape:cx="45"
     inkscape:cy="31.00048"
     inkscape:window-x="518"
     inkscape:window-y="112"
     inkscape:window-maximized="0"
     inkscape:current-layer="Icons" /><path
     id="Twitter__x28_alt_x29_"
     d="m 79.803,27.565 c 5.055,-0.417 8.483,-2.715 9.803,-5.833 -1.824,1.12 -7.484,2.341 -10.61,1.178 C 78.843,22.176 78.672,21.478 78.504,20.848 76.122,12.102 67.967,5.056 59.422,5.907 60.113,5.628 60.814,5.368 61.514,5.135 62.454,4.798 67.973,3.9 67.104,1.952 66.371,0.239 59.629,3.247 58.36,3.64 60.035,3.01 62.807,1.926 63.103,0 60.536,0.352 58.016,1.566 56.069,3.331 56.772,2.574 57.305,1.652 57.418,0.659 50.57,5.034 46.57,13.854 43.333,22.409 40.791,19.946 38.538,18.006 36.517,16.929 30.847,13.888 24.068,10.716 13.426,6.765 c -0.327,3.521 1.741,8.203 7.7,11.316 -1.291,-0.173 -3.652,0.213 -5.54,0.665 0.769,4.034 3.28,7.357 10.079,8.964 -3.107,0.205 -4.713,0.912 -6.168,2.436 1.415,2.805 4.868,6.107 11.08,5.429 -6.906,2.977 -2.816,8.49 2.804,7.667 C 23.794,53.144 8.679,52.417 0,44.135 22.661,75.014 71.921,62.397 79.262,32.654 84.761,32.701 87.995,30.749 90,28.597 86.831,29.135 82.239,28.579 79.803,27.565 z"
     inkscape:connector-curvature="0"
     style="fill:#cccccc;fill-opacity:1" /></svg>