<svg xmlns="http://www.w3.org/2000/svg" width="100" height="100">
  <path fill="none" stroke="#fff" stroke-width="1.845" d="M27.193 29.932c-.848.629-8.335-4.824-9.39-4.813-1.055.01-8.428 5.617-9.287 5.006-.86-.612 2.012-9.417 1.676-10.417-.337-1-7.947-6.28-7.631-7.287.315-1.007 9.578-.996 10.425-1.625.847-.629 3.516-9.498 4.572-9.509 1.055-.01 3.906 8.802 4.766 9.413.86.611 10.12.41 10.457 1.41.336 1-7.164 6.435-7.48 7.442-.315 1.006 2.739 9.75 1.892 10.38z" transform="matrix(2.6451 .0336 -.032 2.77685 3.652 5.836)"/>
</svg>
