<?xml version="1.0" encoding="UTF-8" standalone="no"?>
<!-- Generator: Adobe Illustrator 15.0.0, SVG Export Plug-In . SVG Version: 6.00 Build 0)  -->

<svg
   xmlns:dc="http://purl.org/dc/elements/1.1/"
   xmlns:cc="http://creativecommons.org/ns#"
   xmlns:rdf="http://www.w3.org/1999/02/22-rdf-syntax-ns#"
   xmlns:svg="http://www.w3.org/2000/svg"
   xmlns="http://www.w3.org/2000/svg"
   xmlns:sodipodi="http://sodipodi.sourceforge.net/DTD/sodipodi-0.dtd"
   xmlns:inkscape="http://www.inkscape.org/namespaces/inkscape"
   version="1.1"
   id="Icons"
   x="0px"
   y="0px"
   width="100"
   height="100"
   viewBox="0 0 100 100"
   xml:space="preserve"
   inkscape:version="0.48.4 r9939"
   sodipodi:docname="web.svg"
   inkscape:export-filename="/home/damien/Projects/damien.git/SailfishOS/SomaFM/images/icons/icon-s-web.png"
   inkscape:export-xdpi="28.799999"
   inkscape:export-ydpi="28.799999"><metadata
     id="metadata8"><rdf:RDF><cc:Work
         rdf:about=""><dc:format>image/svg+xml</dc:format><dc:type
           rdf:resource="http://purl.org/dc/dcmitype/StillImage" /><dc:title></dc:title></cc:Work></rdf:RDF></metadata><defs
     id="defs6" /><sodipodi:namedview
     pagecolor="#ffffff"
     bordercolor="#666666"
     borderopacity="1"
     objecttolerance="10"
     gridtolerance="10"
     guidetolerance="10"
     inkscape:pageopacity="0"
     inkscape:pageshadow="2"
     inkscape:window-width="1366"
     inkscape:window-height="717"
     id="namedview4"
     showgrid="false"
     units="px"
     fit-margin-top="0"
     fit-margin-left="0"
     fit-margin-right="0"
     fit-margin-bottom="0"
     inkscape:zoom="2.8284272"
     inkscape:cx="112.67091"
     inkscape:cy="88.20615"
     inkscape:window-x="-2"
     inkscape:window-y="-3"
     inkscape:window-maximized="1"
     inkscape:current-layer="Icons"
     inkscape:snap-bbox="true"><inkscape:grid
       type="xygrid"
       id="grid2982"
       units="px"
       empspacing="10"
       visible="true"
       enabled="true"
       snapvisiblegridlinesonly="true"
       spacingx="1px"
       spacingy="1px" /></sodipodi:namedview><path
     id="path3086"
     style="fill:#ffffff;fill-opacity:1;fill-rule:nonzero;stroke:none"
     d="m 34.456242,9.9999472 31.861211,0 c 4.963958,0 9.351432,1.4871378 13.159669,4.4586768 3.806859,2.975645 5.714378,5.878717 5.714378,8.710577 0,2.003393 -0.706599,3.637054 -2.10608,4.907833 -1.403613,1.274886 -2.960587,1.908905 -4.662716,1.908905 -2.203336,0 -4.210838,-0.995535 -6.025233,-2.996187 -1.815801,-2.003393 -3.715112,-3.008513 -5.695236,-3.008513 l -31.364108,0 c -3.082439,0 -4.621621,1.261194 -4.621621,3.767144 0,1.761013 1.010596,3.093413 3.027683,4.004045 l 36.919643,16.620073 c 3.75483,1.66105 6.831788,4.325848 9.235062,8.003983 2.401869,3.676763 3.604167,7.753385 3.604167,12.228494 0,5.971833 -2.112939,11.031664 -6.338816,15.178125 -4.224527,4.145089 -9.01868,6.21695 -14.378409,6.21695 l -28.170724,0 c -4.866757,0 -9.382942,-1.470706 -13.551308,-4.416227 -4.172498,-2.945519 -6.255304,-5.808878 -6.255304,-8.587334 0,-1.829481 0.67374,-3.456295 2.022569,-4.872228 1.347451,-1.41593 3.098882,-2.126633 5.250161,-2.126633 1.762394,0 3.649394,1.003749 5.659623,3.011248 2.011606,2.01024 4.918787,3.011251 8.722891,3.011251 l 25.870186,0 c 2.037635,0 3.743868,-0.781911 5.121452,-2.356689 1.377612,-1.57067 2.067767,-3.374133 2.067767,-5.417238 0,-3.1386 -1.499464,-5.403543 -4.49291,-6.78387 L 27.677861,44.649178 c -3.593232,-1.603537 -6.353882,-3.923252 -8.286081,-6.968736 -1.93217,-3.040006 -2.896218,-6.134788 -2.896218,-9.277498 0,-4.963977 1.719949,-9.276129 5.170754,-12.928246 3.450833,-3.648008 7.712296,-5.4747508 12.789926,-5.4747508"
     inkscape:connector-curvature="0" /></svg>