<svg xmlns="http://www.w3.org/2000/svg" width="100" height="100">
  <path fill="#fff" d="M34.456 10h31.861c4.964 0 9.352 1.487 13.16 4.459 3.807 2.975 5.714 5.878 5.714 8.71 0 2.004-.706 3.637-2.106 4.908-1.403 1.275-2.96 1.909-4.662 1.909-2.204 0-4.211-.996-6.026-2.996-1.815-2.004-3.715-3.009-5.695-3.009H35.338c-3.082 0-4.621 1.261-4.621 3.767 0 1.761 1.01 3.094 3.027 4.004l36.92 16.62c3.755 1.662 6.832 4.326 9.235 8.004 2.402 3.677 3.604 7.754 3.604 12.229 0 5.972-2.113 11.032-6.339 15.178C72.94 87.928 68.146 90 62.786 90h-28.17c-4.868 0-9.384-1.47-13.552-4.416-4.173-2.946-6.256-5.81-6.256-8.588 0-1.829.674-3.456 2.023-4.872 1.348-1.416 3.099-2.126 5.25-2.126 1.763 0 3.65 1.003 5.66 3.01 2.011 2.011 4.919 3.012 8.723 3.012h25.87c2.038 0 3.744-.782 5.121-2.357 1.378-1.57 2.068-3.374 2.068-5.417 0-3.138-1.5-5.403-4.493-6.784L27.678 44.65c-3.593-1.603-6.354-3.923-8.286-6.969-1.932-3.04-2.896-6.134-2.896-9.277 0-4.964 1.72-9.276 5.17-12.928C25.117 11.827 29.38 10 34.456 10"/>
</svg>
