<?xml version="1.0" encoding="UTF-8" standalone="no"?>
<!-- Generator: Adobe Illustrator 15.0.0, SVG Export Plug-In . SVG Version: 6.00 Build 0)  -->

<svg
   xmlns:dc="http://purl.org/dc/elements/1.1/"
   xmlns:cc="http://creativecommons.org/ns#"
   xmlns:rdf="http://www.w3.org/1999/02/22-rdf-syntax-ns#"
   xmlns:svg="http://www.w3.org/2000/svg"
   xmlns="http://www.w3.org/2000/svg"
   xmlns:xlink="http://www.w3.org/1999/xlink"
   xmlns:sodipodi="http://sodipodi.sourceforge.net/DTD/sodipodi-0.dtd"
   xmlns:inkscape="http://www.inkscape.org/namespaces/inkscape"
   version="1.1"
   id="Icons"
   x="0px"
   y="0px"
   width="100"
   height="100"
   viewBox="0 0 100 100"
   xml:space="preserve"
   inkscape:version="0.48.4 r9939"
   sodipodi:docname="websupport.svg"
   inkscape:export-filename="/home/damien/Projects/damien.git/SailfishOS/SomaFM/images/icons/icon-s-websupport.png"
   inkscape:export-xdpi="28.799999"
   inkscape:export-ydpi="28.799999"><metadata
     id="metadata8"><rdf:RDF><cc:Work
         rdf:about=""><dc:format>image/svg+xml</dc:format><dc:type
           rdf:resource="http://purl.org/dc/dcmitype/StillImage" /><dc:title></dc:title></cc:Work></rdf:RDF></metadata><defs
     id="defs6"><linearGradient
       y2="425.19684"
       x2="361.41733"
       y1="439.37006"
       x1="347.24408"
       gradientTransform="matrix(4.630262,0,0,4.6302592,-1243.854,-1569.2909)"
       gradientUnits="userSpaceOnUse"
       id="linearGradient3111"
       xlink:href="#linearGradient3811"
       inkscape:collect="always" /><linearGradient
       y2="425.19684"
       x2="361.41733"
       y1="439.37006"
       x1="347.24408"
       gradientTransform="matrix(1.6674399,0,0,1.6674389,-229.42956,-292.06247)"
       gradientUnits="userSpaceOnUse"
       id="linearGradient3029"
       xlink:href="#linearGradient3811"
       inkscape:collect="always" /><linearGradient
       id="linearGradient3811-7"><stop
         id="stop3813-0"
         offset="0"
         style="stop-color:#000000;stop-opacity:1;" /><stop
         id="stop3815-2"
         offset="1"
         style="stop-color:#ffffff;stop-opacity:1;" /></linearGradient><linearGradient
       gradientUnits="userSpaceOnUse"
       y2="425.19684"
       x2="361.41733"
       y1="439.37006"
       x1="347.24408"
       id="linearGradient3817-2"
       xlink:href="#linearGradient3811-7"
       inkscape:collect="always" /><linearGradient
       gradientTransform="translate(-1.7871553,113.38802)"
       y2="425.19684"
       x2="361.41733"
       y1="439.37006"
       x1="347.24408"
       gradientUnits="userSpaceOnUse"
       id="linearGradient3801"
       xlink:href="#linearGradient3811"
       inkscape:collect="always" /><linearGradient
       inkscape:collect="always"
       xlink:href="#linearGradient3811-0"
       id="linearGradient3866"
       gradientUnits="userSpaceOnUse"
       x1="347.24408"
       y1="439.37006"
       x2="361.41733"
       y2="425.19684"
       gradientTransform="translate(-0.01303364,21.262036)" /><linearGradient
       id="linearGradient3811-0"><stop
         id="stop3813-7"
         offset="0"
         style="stop-color:#ff0000;stop-opacity:1;" /><stop
         id="stop3815-3"
         offset="1"
         style="stop-color:#ffffff;stop-opacity:1;" /></linearGradient><linearGradient
       gradientUnits="userSpaceOnUse"
       y2="425.19684"
       x2="361.41733"
       y1="439.37006"
       x1="347.24408"
       id="linearGradient3817-3"
       xlink:href="#linearGradient3811-0"
       inkscape:collect="always" /><linearGradient
       gradientTransform="matrix(1.6674399,0,0,1.6674389,-229.42956,-292.06247)"
       gradientUnits="userSpaceOnUse"
       y2="425.19684"
       x2="361.41733"
       y1="439.37006"
       x1="347.24408"
       id="linearGradient3817"
       xlink:href="#linearGradient3811"
       inkscape:collect="always" /><linearGradient
       id="linearGradient3811"><stop
         id="stop3813"
         offset="0"
         style="stop-color:#000000;stop-opacity:1;" /><stop
         id="stop3815"
         offset="1"
         style="stop-color:#ffffff;stop-opacity:1;" /></linearGradient></defs><sodipodi:namedview
     pagecolor="#ffffff"
     bordercolor="#666666"
     borderopacity="1"
     objecttolerance="10"
     gridtolerance="10"
     guidetolerance="10"
     inkscape:pageopacity="0"
     inkscape:pageshadow="2"
     inkscape:window-width="1366"
     inkscape:window-height="717"
     id="namedview4"
     showgrid="false"
     units="px"
     fit-margin-top="0"
     fit-margin-left="0"
     fit-margin-right="0"
     fit-margin-bottom="0"
     inkscape:zoom="2.0000001"
     inkscape:cx="128.29325"
     inkscape:cy="94.130967"
     inkscape:window-x="-2"
     inkscape:window-y="-3"
     inkscape:window-maximized="1"
     inkscape:current-layer="Icons"
     inkscape:snap-bbox="true"><inkscape:grid
       type="xygrid"
       id="grid2982"
       units="px"
       empspacing="10"
       visible="true"
       enabled="true"
       snapvisiblegridlinesonly="true"
       spacingx="1px"
       spacingy="1px" /></sodipodi:namedview><path
     style="fill:#000000"
     d=""
     id="path3892"
     inkscape:connector-curvature="0" /><path
     style="fill:#000000"
     d=""
     id="path3886"
     inkscape:connector-curvature="0" /><path
     style="fill:#000000"
     d=""
     id="path3884"
     inkscape:connector-curvature="0" /><path
     style="fill:#000000"
     d=""
     id="path3882"
     inkscape:connector-curvature="0" /><path
     style="fill:#ffffff;fill-opacity:1"
     d="M 31.125 16.375 C 28.628264 16.44724 26.109558 16.95202 23.65625 17.9375 C 12.50654 22.41701 7.08275 35.0696 11.5625 46.21875 C 15.85776 56.91136 49.90625 83.5625 49.90625 83.5625 L 50 83.65625 L 50.09375 83.5625 C 50.09375 83.5625 84.14146 56.91136 88.4375 46.21875 C 92.9178 35.0696 87.4937 22.41701 76.34375 17.9375 C 66.53076 13.99558 55.54853 17.70116 50 26.25 C 45.839038 19.838445 38.615209 16.15828 31.125 16.375 z M 43.78125 34 L 56.53125 34 C 58.51683 34 60.257958 34.592636 61.78125 35.78125 C 63.303992 36.971506 64.0625 38.148507 64.0625 39.28125 C 64.0625 40.082606 63.778541 40.710439 63.21875 41.21875 C 62.657306 41.728704 62.055852 42 61.375 42 C 60.493667 42 59.694508 41.58151 58.96875 40.78125 C 58.242431 39.979894 57.479548 39.59375 56.6875 39.59375 L 44.125 39.59375 C 42.892027 39.59375 42.28125 40.091371 42.28125 41.09375 C 42.28125 41.798154 42.693166 42.323248 43.5 42.6875 L 58.25 49.34375 C 59.751931 50.00817 61.007441 51.091248 61.96875 52.5625 C 62.929496 54.033203 63.40625 55.647459 63.40625 57.4375 C 63.40625 59.826231 62.565348 61.841418 60.875 63.5 C 59.185191 65.158034 57.26889 66 55.125 66 L 43.84375 66 C 41.89705 66 40.104844 65.396956 38.4375 64.21875 C 36.768503 63.040544 35.9375 61.92388 35.9375 60.8125 C 35.9375 60.080708 36.179219 59.410124 36.71875 58.84375 C 37.25773 58.277379 37.98324 58 38.84375 58 C 39.548706 58 40.289659 58.415751 41.09375 59.21875 C 41.898391 60.022845 43.072111 60.40625 44.59375 60.40625 L 54.9375 60.40625 C 55.752552 60.40625 56.417717 60.09866 56.96875 59.46875 C 57.519794 58.840483 57.8125 58.129741 57.8125 57.3125 C 57.8125 56.057061 57.197377 55.14588 56 54.59375 L 41.0625 47.875 C 39.625209 47.233586 38.522878 46.280693 37.75 45.0625 C 36.977133 43.846499 36.59375 42.632082 36.59375 41.375 C 36.59375 39.389412 37.27593 37.648344 38.65625 36.1875 C 40.036582 34.728298 41.7502 34 43.78125 34 z "
     id="path3226" /></svg>