<?xml version="1.0" encoding="UTF-8" standalone="no"?>
<!-- Created with Inkscape (http://www.inkscape.org/) -->

<svg
   xmlns:dc="http://purl.org/dc/elements/1.1/"
   xmlns:cc="http://creativecommons.org/ns#"
   xmlns:rdf="http://www.w3.org/1999/02/22-rdf-syntax-ns#"
   xmlns:svg="http://www.w3.org/2000/svg"
   xmlns="http://www.w3.org/2000/svg"
   xmlns:sodipodi="http://sodipodi.sourceforge.net/DTD/sodipodi-0.dtd"
   xmlns:inkscape="http://www.inkscape.org/namespaces/inkscape"
   width="255.09525"
   height="82.740761"
   id="svg3024"
   version="1.1"
   inkscape:version="0.48.4 r9939"
   sodipodi:docname="name.svg">
  <defs
     id="defs3026" />
  <sodipodi:namedview
     id="base"
     pagecolor="#ffffff"
     bordercolor="#666666"
     borderopacity="1.0"
     inkscape:pageopacity="0.0"
     inkscape:pageshadow="2"
     inkscape:zoom="0.98994949"
     inkscape:cx="109.54264"
     inkscape:cy="0.96920509"
     inkscape:document-units="mm"
     inkscape:current-layer="layer1"
     showgrid="false"
     units="mm"
     fit-margin-top="5"
     fit-margin-left="5"
     fit-margin-right="5"
     fit-margin-bottom="5"
     inkscape:window-width="470"
     inkscape:window-height="411"
     inkscape:window-x="111"
     inkscape:window-y="234"
     inkscape:window-maximized="0" />
  <metadata
     id="metadata3029">
    <rdf:RDF>
      <cc:Work
         rdf:about="">
        <dc:format>image/svg+xml</dc:format>
        <dc:type
           rdf:resource="http://purl.org/dc/dcmitype/StillImage" />
        <dc:title />
      </cc:Work>
    </rdf:RDF>
  </metadata>
  <g
     inkscape:label="Layer 1"
     inkscape:groupmode="layer"
     id="layer1"
     transform="translate(-249.59524,-436.70609)">
    <g
       id="g3075"
       transform="translate(17.142869,-94.285723)"
       style="fill:#ff0000">
      <path
         id="path3057"
         d="m 251.98307,593.35134 c -1.06883,-1.19867 -1.93705,-1.91948 -1.79986,-3.64556 0.13719,-1.72608 1.50193,-2.40091 2.73287,-2.41565 0.85746,-0.0103 1.45563,0.26138 2.49039,1.13098 1.56613,1.31617 1.42269,1.29368 8.61459,1.35078 3.52521,0.028 6.65424,0.005 6.9534,-0.0504 0.66381,-0.12358 1.80948,-1.12455 2.11073,-1.84413 0.12176,-0.29086 0.22111,-0.95646 0.22078,-1.47911 -6.6e-4,-1.09161 -0.32745,-1.75519 -1.1769,-2.39015 -0.30147,-0.22534 -4.20891,-2.05312 -8.68321,-4.06174 -4.47431,-2.00861 -8.45863,-3.83812 -8.85405,-4.06557 -3.79088,-2.18059 -4.96412,-7.07692 -2.58639,-10.79391 1.07873,-1.68632 2.91218,-2.96383 4.83362,-3.36797 1.1179,-0.23513 15.29596,-0.24773 16.79623,-0.0149 1.53984,0.23894 3.5126,1.2537 4.74443,2.44048 1.11787,1.07699 1.65611,2.06886 1.66118,3.06119 0.01,1.88067 -2.00343,3.32385 -3.80632,2.72884 -0.30924,-0.10206 -1.05803,-0.62565 -1.66398,-1.16354 -0.68817,-0.61087 -1.35051,-1.04497 -1.76452,-1.15645 -0.44293,-0.11927 -3.02828,-0.16217 -7.79356,-0.12932 -6.91258,0.0477 -7.14468,0.0596 -7.58568,0.38898 -0.79341,0.59268 -0.85127,1.70188 -0.12658,2.42657 0.21528,0.21528 3.88629,1.96419 8.1578,3.88647 8.87332,3.9932 9.61593,4.3597 10.67571,5.26883 1.06265,0.9116 2.29033,2.80714 2.76851,4.27459 0.57055,1.75092 0.5524,4.17943 -0.0438,5.86151 -0.52401,1.47839 -1.66,3.09046 -2.87549,4.08059 -1.81151,1.47564 -2.83699,1.42186 -5.91426,2.04686 -4.70739,0.51618 -11.54287,0.28214 -13.13173,-0.12384 -1.58886,-0.40598 -3.88508,-1.04576 -4.95391,-2.24443 z"
         style="fill:#ff0000"
         inkscape:connector-curvature="0" />
      <path
         id="path3055"
         d="m 293.28125,561.625 -1.21875,0.4375 c -3.74614,1.36841 -7.0947,4.81739 -8,8.21875 -0.18721,0.70322 -0.249,2.40441 -0.25,8.40625 l 0,7.53125 0.4375,1.21875 c 0.512,1.52523 1.28827,2.76547 2.59375,4.125 1.88159,1.95947 3.94273,3.26842 6.09375,3.84375 1.0565,0.28258 1.66168,0.2929 6.25,0.25 4.68067,-0.0437 5.1623,-0.0625 6,-0.375 3.93035,-1.46638 7.34683,-4.74691 8.34375,-8.03125 0.27131,-0.89374 0.28125,-1.71778 0.28125,-8.71875 0,-7.59466 -0.01,-7.73092 -0.375,-8.78125 -0.5284,-1.52038 -1.20202,-2.62108 -2.375,-3.875 -1.739,-1.859 -3.81524,-3.24123 -5.875,-3.9375 -0.80988,-0.27375 -1.47334,-0.3125 -6.40625,-0.3125 l -5.5,0 z m 5.75,5.90625 c 4.91855,0 4.49337,-0.0927 6.8125,1.75 2.15764,1.71437 2.0625,1.18011 2.0625,9.34375 0,6.26538 -0.0385,6.88704 -0.3125,7.4375 -0.33707,0.6773 -2.62742,2.7748 -3.625,3.3125 -0.6189,0.3336 -0.91468,0.3383 -4.9375,0.375 -4.37741,0.0399 -5.07136,-0.0151 -5.8125,-0.625 -1.57177,-1.29341 -2.81257,-2.53916 -3.03125,-3 -0.23324,-0.49157 -0.28191,-1.448 -0.28125,-7.53125 8.4e-4,-6.94145 0.003,-6.94882 0.375,-7.5625 0.4733,-0.7818 3.09692,-3.00498 3.875,-3.28125 0.42082,-0.14942 1.82918,-0.21875 4.875,-0.21875 z"
         style="fill:#ff0000"
         inkscape:connector-curvature="0" />
      <path
         id="path3051"
         d="m 321.62413,595.5443 c -0.53122,-0.22268 -1.28137,-0.93718 -1.57595,-1.50107 -0.19464,-0.37257 -0.23185,-2.85462 -0.23185,-15.46525 l 0,-15.02146 0.37369,-0.55452 c 0.47055,-0.69825 1.29713,-1.2613 2.0624,-1.40486 1.24922,-0.23436 2.70484,0.50339 3.15965,1.60138 0.10792,0.26056 0.26049,0.47373 0.33904,0.47373 0.0785,0 0.6251,-0.33019 1.21457,-0.73375 2.2814,-1.56191 5.06579,-1.79746 7.38635,-0.62487 0.44708,0.22591 1.23752,0.81579 1.75654,1.31086 l 0.94367,0.90011 1.1337,-0.91599 c 1.36812,-1.10539 2.62574,-1.70617 4.07385,-1.94613 3.56649,-0.59099 7.0959,1.96044 7.80324,5.641 0.23419,1.21858 1.14959,25.68457 0.98276,26.26628 -0.51045,1.77984 -2.60306,2.67504 -4.26783,1.82574 -0.76167,-0.38858 -1.26252,-0.98872 -1.49682,-1.79355 -0.0965,-0.33149 -0.33946,-5.98295 -0.54971,-12.78674 -0.40937,-13.24707 -0.37339,-12.8907 -1.32591,-13.12977 -0.57686,-0.14478 -1.1222,0.18112 -3.18176,1.90143 l -1.82779,1.52672 -0.0454,11.38395 -0.0454,11.38395 -0.50472,0.63145 c -0.63517,0.79466 -1.43166,1.20608 -2.33552,1.20641 -1.24875,5e-4 -2.40456,-0.76182 -2.81922,-1.85933 -0.1178,-0.31177 -0.1748,-4.45362 -0.1748,-12.70096 0,-13.32681 0.005,-13.24683 -0.89307,-13.47231 -0.7446,-0.18688 -1.20756,0.0682 -3.23511,1.78222 -1.09365,0.92455 -2.10981,1.77659 -2.25813,1.89342 -0.24374,0.19197 -0.27759,1.27514 -0.35186,11.25766 -0.0916,12.31628 -0.0215,11.61177 -1.24848,12.54762 -0.45303,0.34554 -0.80885,0.46255 -1.52037,0.49999 -0.5109,0.0269 -1.11381,-0.0286 -1.33978,-0.12336 z"
         style="fill:#ff0000"
         inkscape:connector-curvature="0" />
      <path
         id="path3049"
         d="m 370.4375,561.5 c -3.26033,10e-4 -6.43754,0.0985 -6.875,0.28125 -1.24374,0.51966 -1.84375,1.40944 -1.84375,2.71875 0,1.03779 0.4506,1.89914 1.28125,2.46875 l 0.59375,0.40625 6.59375,0.0625 c 5.81074,0.0725 6.63979,0.12647 7.09375,0.375 0.66385,0.36344 1.2904,1.13115 1.5,1.8125 0.19421,0.63091 0.3772,4.61863 0.21875,4.875 -0.0756,0.12202 -0.38913,0.1471 -1,0.0312 -1.21488,-0.23042 -14.18887,-0.2326 -15.3125,0 -2.09623,0.43393 -4.33616,1.95622 -5.53125,3.75 -1.34518,2.01906 -1.5595,2.99096 -1.5625,6.84375 -0.002,2.74331 0.0305,3.26457 0.34375,4.28125 0.89003,2.88835 3.37548,5.29122 6.28125,6.0625 0.70652,0.18754 2.16604,0.242 6.6875,0.25 l 5.78125,0 2.3125,-1.4062 c 1.27485,-0.76831 2.38655,-1.375 2.46875,-1.375 0.0822,0 0.24625,0.29404 0.34375,0.65625 0.0975,0.3622 0.41201,0.91201 0.71875,1.21875 1.49294,1.49294 3.92666,1.10638 4.90625,-0.78125 0.31683,-0.61053 0.3179,-0.7255 -0.0312,-12 -0.1937,-6.25494 -0.413,-11.91524 -0.5,-12.5625 -0.51835,-3.85847 -3.30391,-6.90458 -7,-7.6875 -0.86051,-0.18207 -4.20842,-0.28257 -7.46875,-0.28125 z m -4.25,19.03125 c 1.03327,-0.0151 2.41235,0 4.25,0 5.88529,0 6.7203,0.01 7.15625,0.25 1.21967,0.67284 1.6677,1.60225 1.75,3.65625 l 0.0625,1.5 -3.125,1.8125 -3.125,1.8125 -4.4375,0.0312 c -4.96726,0.0422 -5.37908,-0.021 -6.28125,-1 -0.69247,-0.7514 -0.875,-1.4934 -0.875,-3.5625 0,-1.98477 0.15438,-2.72964 0.75,-3.4375 0.68669,-0.81611 0.7752,-1.01732 3.875,-1.0625 z"
         style="fill:#ff0000"
         inkscape:connector-curvature="0" />
      <path
         id="path3045"
         d="m 419.766,595.3762 c -0.40742,-0.20698 -0.89947,-0.64504 -1.15042,-1.02421 l -0.43852,-0.66255 -0.045,-12.98809 c -0.0348,-10.03742 -0.0908,-13.01717 -0.24652,-13.11613 -0.11085,-0.0704 -0.96326,-0.12917 -1.89426,-0.13056 -1.83462,-0.003 -2.26848,-0.13666 -3.02177,-0.93283 -1.09536,-1.1577 -1.05756,-2.87746 0.0909,-4.13839 0.59253,-0.65054 0.93953,-0.74844 2.98008,-0.84071 l 1.97214,-0.0892 0.10229,-1.97214 c 0.18402,-3.54816 0.98696,-5.52863 3.10465,-7.65759 1.43988,-1.44754 3.27831,-2.46385 5.17468,-2.86063 1.41416,-0.29588 10.13348,-0.35289 10.87718,-0.0711 1.39621,0.52901 2.22769,2.44465 1.68479,3.88156 -0.21699,0.57428 -0.90004,1.30888 -1.55083,1.66784 -0.41479,0.22879 -1.23641,0.28536 -5.17688,0.35644 -5.22983,0.0943 -5.44135,0.13523 -6.62882,1.28135 -1.08978,1.05182 -1.31871,1.67936 -1.33109,3.64866 l -0.0108,1.72563 3.45125,0.0822 c 2.25993,0.0538 3.57111,0.15092 3.7985,0.28133 1.0479,0.601 1.83692,2.17172 1.6199,3.22477 -0.16822,0.81629 -0.83892,1.71567 -1.54992,2.0784 -0.58637,0.29915 -0.96461,0.33194 -3.82907,0.33194 -2.25296,0 -3.23583,0.0574 -3.37562,0.19721 -0.15002,0.15002 -0.19722,3.26739 -0.19722,13.02694 0,12.18224 -0.0155,12.85842 -0.30491,13.39825 -0.79978,1.49129 -2.60479,2.06368 -4.10475,1.30165 z"
         style="fill:#ff0000"
         inkscape:connector-curvature="0" />
      <path
         id="path3168-2"
         d="m 440.14483,595.3672 c -0.41668,-0.20625 -0.89376,-0.62716 -1.15042,-1.01495 l -0.43852,-0.66257 -0.0445,-14.69067 c -0.0289,-9.53826 0.0138,-14.90735 0.12183,-15.30847 0.21814,-0.81006 1.20448,-1.78218 2.03522,-2.00588 1.38131,-0.37195 2.83592,0.20869 3.43596,1.37153 0.17489,0.33896 0.38407,0.61629 0.46482,0.61629 0.0807,0 0.46588,-0.24356 0.85587,-0.54124 1.58061,-1.20651 3.90503,-1.8043 5.71035,-1.46856 1.45421,0.27043 2.57827,0.84804 3.73567,1.91958 l 1.02481,0.94879 0.66596,-0.60166 c 2.2006,-1.98811 4.71596,-2.75826 7.05699,-2.16071 2.69638,0.68825 4.62133,2.73403 5.17392,5.49868 0.25436,1.27258 1.19422,25.65276 1.01595,26.35406 -0.15581,0.61297 -1.05804,1.60652 -1.7039,1.87638 -1.08921,0.4551 -2.38657,0.22634 -3.22725,-0.56906 -1.01095,-0.95652 -0.95345,-0.38281 -1.36206,-13.58913 -0.22035,-7.12184 -0.4509,-12.42008 -0.55634,-12.78541 -0.20386,-0.70634 -0.72749,-1.03746 -1.38118,-0.87339 -0.23174,0.0582 -1.30666,0.84286 -2.38871,1.74377 l -1.96736,1.63801 -0.0475,11.31362 -0.0475,11.31363 -0.45213,0.68306 c -1.20301,1.81743 -3.92437,1.76942 -5.08023,-0.0896 l -0.38408,-0.61775 -0.0822,-12.71029 -0.0822,-12.71029 -0.38799,-0.31408 c -0.46294,-0.37477 -0.92845,-0.39691 -1.54825,-0.0736 -0.47537,0.24797 -3.70365,2.9595 -4.34997,3.65368 l -0.36978,0.39716 0,10.85635 0,10.85634 -0.36802,0.65478 c -0.75242,1.33877 -2.42608,1.80998 -3.8773,1.09165 z"
         style="fill:#ff0000"
         inkscape:connector-curvature="0" />
    </g>
  </g>
</svg>
