<?xml version="1.0" encoding="UTF-8" standalone="no"?>
<!-- Created with Inkscape (http://www.inkscape.org/) -->

<svg
   xmlns:dc="http://purl.org/dc/elements/1.1/"
   xmlns:cc="http://creativecommons.org/ns#"
   xmlns:rdf="http://www.w3.org/1999/02/22-rdf-syntax-ns#"
   xmlns:svg="http://www.w3.org/2000/svg"
   xmlns="http://www.w3.org/2000/svg"
   xmlns:xlink="http://www.w3.org/1999/xlink"
   xmlns:sodipodi="http://sodipodi.sourceforge.net/DTD/sodipodi-0.dtd"
   xmlns:inkscape="http://www.inkscape.org/namespaces/inkscape"
   width="100"
   height="100"
   id="svg2"
   version="1.1"
   inkscape:version="0.48.4 r9939"
   sodipodi:docname="logo.svg">
  <defs
     id="defs4">
    <linearGradient
       id="linearGradient3796">
      <stop
         style="stop-color:#fffdff;stop-opacity:1;"
         offset="0"
         id="stop3806" />
      <stop
         id="stop3800"
         offset="1"
         style="stop-color:#000000;stop-opacity:1;" />
    </linearGradient>
    <linearGradient
       id="linearGradient3811">
      <stop
         style="stop-color:#000000;stop-opacity:1;"
         offset="0"
         id="stop3813" />
      <stop
         style="stop-color:#ffffff;stop-opacity:1;"
         offset="1"
         id="stop3815" />
    </linearGradient>
    <linearGradient
       inkscape:collect="always"
       xlink:href="#linearGradient3811"
       id="linearGradient3817"
       x1="347.24408"
       y1="439.37006"
       x2="361.41733"
       y2="425.19684"
       gradientUnits="userSpaceOnUse"
       gradientTransform="matrix(1.6674399,0,0,1.6674389,-229.42956,-292.06247)" />
    <linearGradient
       inkscape:collect="always"
       xlink:href="#linearGradient3811-0"
       id="linearGradient3817-3"
       x1="347.24408"
       y1="439.37006"
       x2="361.41733"
       y2="425.19684"
       gradientUnits="userSpaceOnUse" />
    <linearGradient
       id="linearGradient3811-0">
      <stop
         style="stop-color:#ff0000;stop-opacity:1;"
         offset="0"
         id="stop3813-7" />
      <stop
         style="stop-color:#ffffff;stop-opacity:1;"
         offset="1"
         id="stop3815-3" />
    </linearGradient>
    <linearGradient
       gradientTransform="translate(-0.01303364,21.262036)"
       y2="425.19684"
       x2="361.41733"
       y1="439.37006"
       x1="347.24408"
       gradientUnits="userSpaceOnUse"
       id="linearGradient3866"
       xlink:href="#linearGradient3811-0"
       inkscape:collect="always" />
    <linearGradient
       inkscape:collect="always"
       xlink:href="#linearGradient3811"
       id="linearGradient3801"
       gradientUnits="userSpaceOnUse"
       x1="347.24408"
       y1="439.37006"
       x2="361.41733"
       y2="425.19684"
       gradientTransform="translate(-1.7871553,113.38802)" />
    <linearGradient
       inkscape:collect="always"
       xlink:href="#linearGradient3811-7"
       id="linearGradient3817-2"
       x1="347.24408"
       y1="439.37006"
       x2="361.41733"
       y2="425.19684"
       gradientUnits="userSpaceOnUse" />
    <linearGradient
       id="linearGradient3811-7">
      <stop
         style="stop-color:#000000;stop-opacity:1;"
         offset="0"
         id="stop3813-0" />
      <stop
         style="stop-color:#ffffff;stop-opacity:1;"
         offset="1"
         id="stop3815-2" />
    </linearGradient>
    <linearGradient
       inkscape:collect="always"
       xlink:href="#linearGradient3811"
       id="linearGradient3029"
       gradientUnits="userSpaceOnUse"
       gradientTransform="matrix(1.6674399,0,0,1.6674389,-229.42956,-292.06247)"
       x1="347.24408"
       y1="439.37006"
       x2="361.41733"
       y2="425.19684" />
    <clipPath
       clipPathUnits="userSpaceOnUse"
       id="clipPath3080">
      <path
         inkscape:connector-curvature="0"
         d="m 0,154.08 396,0 L 396,0 0,0 0,154.08 z"
         id="path3082" />
    </clipPath>
    <linearGradient
       inkscape:collect="always"
       xlink:href="#linearGradient3811"
       id="linearGradient3315"
       gradientUnits="userSpaceOnUse"
       gradientTransform="matrix(4.630262,0,0,4.6302592,-1243.854,-1569.2909)"
       x1="347.24408"
       y1="439.37006"
       x2="361.41733"
       y2="425.19684" />
    <linearGradient
       y2="0.71689999"
       x2="85.283096"
       y1="85.283096"
       x1="0.71689999"
       gradientUnits="userSpaceOnUse"
       id="SVGID_1_">
      <stop
         id="stop3080"
         style="stop-color:#EB424A"
         offset="0" />
      <stop
         id="stop3082"
         style="stop-color:#FF7500"
         offset="1" />
    </linearGradient>
    <linearGradient
       inkscape:collect="always"
       xlink:href="#linearGradient3811"
       id="linearGradient3952"
       gradientUnits="userSpaceOnUse"
       gradientTransform="matrix(6.9681179,0,0,6.9871324,-2146.717,-2618.0979)"
       x1="347.24408"
       y1="439.37006"
       x2="361.41733"
       y2="425.19684" />
    <linearGradient
       inkscape:collect="always"
       xlink:href="#linearGradient3811"
       id="linearGradient3970"
       x1="50.993103"
       y1="49.079239"
       x2="128.94586"
       y2="-28.873516"
       gradientUnits="userSpaceOnUse"
       gradientTransform="matrix(0.87504893,0,0,0.87504893,350.45362,391.11077)" />
    <linearGradient
       inkscape:collect="always"
       xlink:href="#linearGradient3811"
       id="linearGradient4009"
       gradientUnits="userSpaceOnUse"
       gradientTransform="matrix(0.87504893,0,0,0.87504893,350.45362,391.11077)"
       x1="50.993103"
       y1="49.079239"
       x2="128.94586"
       y2="-28.873516" />
    <radialGradient
       inkscape:collect="always"
       xlink:href="#linearGradient3796"
       id="radialGradient3017"
       gradientUnits="userSpaceOnUse"
       gradientTransform="matrix(1.999889,0,0,1.999889,-433.58077,-395.38868)"
       cx="436.19992"
       cy="392.86151"
       fx="436.19992"
       fy="392.86151"
       r="35.001953" />
  </defs>
  <sodipodi:namedview
     id="base"
     pagecolor="#ffffff"
     bordercolor="#666666"
     borderopacity="1.0"
     inkscape:pageopacity="0.0"
     inkscape:pageshadow="2"
     inkscape:zoom="2.9475"
     inkscape:cx="75.17535"
     inkscape:cy="43.74099"
     inkscape:document-units="mm"
     inkscape:current-layer="layer1"
     showgrid="false"
     inkscape:window-width="1366"
     inkscape:window-height="717"
     inkscape:window-x="-2"
     inkscape:window-y="-3"
     inkscape:window-maximized="1"
     inkscape:snap-global="true"
     units="px"
     fit-margin-top="5"
     fit-margin-left="5"
     fit-margin-bottom="5"
     fit-margin-right="5"
     inkscape:snap-bbox="true"
     showguides="true"
     inkscape:bbox-nodes="true">
    <inkscape:grid
       type="xygrid"
       id="grid2991"
       empspacing="10"
       visible="true"
       enabled="true"
       snapvisiblegridlinesonly="true"
       empcolor="#ff1111"
       empopacity="0.29411765"
       spacingx="1px"
       spacingy="1px"
       units="px"
       dotted="false"
       color="#0000ff"
       opacity="0.11764706"
       originx="0mm"
       originy="0px" />
  </sodipodi:namedview>
  <metadata
     id="metadata7">
    <rdf:RDF>
      <cc:Work
         rdf:about="">
        <dc:format>image/svg+xml</dc:format>
        <dc:type
           rdf:resource="http://purl.org/dc/dcmitype/StillImage" />
        <dc:title></dc:title>
      </cc:Work>
    </rdf:RDF>
  </metadata>
  <g
     inkscape:label="Layer 1"
     inkscape:groupmode="layer"
     id="layer1"
     transform="translate(-338.77069,-390.29078)">
    <g
       id="g3032"
       inkscape:export-filename="/home/damien/Projects/damien.git/SailfishOS/SomaFM/images/logo.png"
       inkscape:export-xdpi="108"
       inkscape:export-ydpi="108">
      <path
         style="color:#000000;fill:#ffffff;fill-opacity:1;fill-rule:nonzero;marker:none;visibility:visible;display:inline;overflow:visible;enable-background:accumulate"
         d="m 385.28411,407.29078 c -20.1607,0 -36.51342,16.35358 -36.51342,36.51342 0,20.16031 16.35309,36.48658 36.51342,36.48658 20.1607,0 36.48658,-16.32675 36.48658,-36.48658 l 0,-35.30614 c 0,-0.67194 -0.53533,-1.20728 -1.20728,-1.20728 l -35.2793,0 z"
         id="path3028"
         inkscape:connector-curvature="0" />
      <path
         inkscape:connector-curvature="0"
         id="path3959"
         d="m 392.28411,400.29078 c -20.1607,0 -36.51342,16.35358 -36.51342,36.51342 0,20.16031 16.35309,36.48658 36.51342,36.48658 20.1607,0 36.48658,-16.32675 36.48658,-36.48658 l 0,-35.30614 c 0,-0.67194 -0.53533,-1.20728 -1.20728,-1.20728 l -35.2793,0 z"
         style="color:#000000;fill:url(#radialGradient3017);fill-opacity:1;fill-rule:nonzero;marker:none;visibility:visible;display:inline;overflow:visible;enable-background:accumulate" />
      <path
         id="path3086"
         style="fill:#ed1c24;fill-opacity:1;fill-rule:nonzero;stroke:none"
         d="m 385.38199,413.62264 17.21278,0 c 2.68173,0 5.05204,0.80561 7.10942,2.41535 2.05662,1.61195 3.08715,3.1846 3.08715,4.71866 0,1.08528 -0.38172,1.97027 -1.1378,2.65867 -0.75828,0.69063 -1.59942,1.03409 -2.51899,1.03409 -1.19033,0 -2.27486,-0.53931 -3.2551,-1.62309 -0.98097,-1.08527 -2.00706,-1.62976 -3.0768,-1.62976 l -16.94425,0 c -1.66527,0 -2.49678,0.68321 -2.49678,2.04073 0,0.95398 0.54594,1.67576 1.63566,2.16905 l 19.9456,9.00339 c 2.0285,0.89983 3.69082,2.34338 4.98917,4.33589 1.2976,1.99179 1.94712,4.20015 1.94712,6.62441 0,3.23504 -1.14149,5.97603 -3.4245,8.22226 -2.28225,2.24546 -4.87227,3.36782 -7.76783,3.36782 l -15.21904,0 c -2.62924,0 -5.06908,-0.7967 -7.32101,-2.39234 -2.25415,-1.59564 -3.37938,-3.14677 -3.37938,-4.65192 0,-0.99105 0.36398,-1.87233 1.09267,-2.63936 0.72796,-0.76704 1.67416,-1.15205 2.83638,-1.15205 0.9521,0 1.97154,0.54376 3.05757,1.63126 1.08676,1.08898 2.65735,1.63124 4.71249,1.63124 l 13.9762,0 c 1.1008,0 2.02259,-0.42358 2.76681,-1.27666 0.74424,-0.85086 1.11709,-1.82782 1.11709,-2.93462 0,-1.70022 -0.81008,-2.92719 -2.42726,-3.67493 L 381.72,432.39276 c -1.94124,-0.86867 -3.43266,-2.12531 -4.47649,-3.77511 -1.04385,-1.64682 -1.56467,-3.32332 -1.56467,-5.02578 0,-2.68907 0.92917,-5.02504 2.79346,-7.00346 1.86429,-1.97618 4.16652,-2.96577 6.90969,-2.96577"
         inkscape:connector-curvature="0" />
    </g>
  </g>
</svg>
