<?xml version="1.0" encoding="UTF-8" standalone="no"?>
<!-- Created with Inkscape (http://www.inkscape.org/) -->

<svg
   xmlns:dc="http://purl.org/dc/elements/1.1/"
   xmlns:cc="http://creativecommons.org/ns#"
   xmlns:rdf="http://www.w3.org/1999/02/22-rdf-syntax-ns#"
   xmlns:svg="http://www.w3.org/2000/svg"
   xmlns="http://www.w3.org/2000/svg"
   xmlns:sodipodi="http://sodipodi.sourceforge.net/DTD/sodipodi-0.dtd"
   xmlns:inkscape="http://www.inkscape.org/namespaces/inkscape"
   width="200.00099"
   height="59.18"
   id="svg3024"
   version="1.1"
   inkscape:version="0.48.4 r9939"
   sodipodi:docname="name.svg">
  <defs
     id="defs3026">
    <clipPath
       id="clipPath3080"
       clipPathUnits="userSpaceOnUse">
      <path
         id="path3082"
         d="m 0,154.08 396,0 L 396,0 0,0 0,154.08 z"
         inkscape:connector-curvature="0" />
    </clipPath>
  </defs>
  <sodipodi:namedview
     id="base"
     pagecolor="#ffffff"
     bordercolor="#666666"
     borderopacity="1.0"
     inkscape:pageopacity="0.0"
     inkscape:pageshadow="2"
     inkscape:zoom="2.8"
     inkscape:cx="110.58802"
     inkscape:cy="20.96664"
     inkscape:document-units="mm"
     inkscape:current-layer="layer1"
     showgrid="false"
     units="px"
     fit-margin-top="10"
     fit-margin-left="10"
     fit-margin-right="10"
     fit-margin-bottom="10"
     inkscape:window-width="1366"
     inkscape:window-height="717"
     inkscape:window-x="-2"
     inkscape:window-y="-3"
     inkscape:window-maximized="1"
     showborder="true" />
  <metadata
     id="metadata3029">
    <rdf:RDF>
      <cc:Work
         rdf:about="">
        <dc:format>image/svg+xml</dc:format>
        <dc:type
           rdf:resource="http://purl.org/dc/dcmitype/StillImage" />
        <dc:title />
      </cc:Work>
    </rdf:RDF>
  </metadata>
  <g
     inkscape:label="Layer 1"
     inkscape:groupmode="layer"
     id="layer1"
     transform="translate(-260.75842,-451.29467)">
    <g
       id="g3076"
       transform="matrix(0.48716859,0,0,-0.48716859,264.91337,529.242)">
      <path
         id="path3086"
         style="fill:#ed1c24;fill-opacity:1;fill-rule:nonzero;stroke:none"
         d="m 26.346,117.471 23.267,0 c 3.625,0 6.829,-1.086 9.61,-3.256 2.78,-2.173 4.173,-4.293 4.173,-6.361 0,-1.463 -0.516,-2.656 -1.538,-3.584 -1.025,-0.931 -2.162,-1.394 -3.405,-1.394 -1.609,0 -3.075,0.727 -4.4,2.188 -1.326,1.463 -2.713,2.197 -4.159,2.197 l -22.904,0 c -2.251,0 -3.375,-0.921 -3.375,-2.751 0,-1.286 0.738,-2.259 2.211,-2.924 L 52.787,89.449 c 2.742,-1.213 4.989,-3.159 6.744,-5.845 1.754,-2.685 2.632,-5.662 2.632,-8.93 0,-4.361 -1.543,-8.056 -4.629,-11.084 -3.085,-3.027 -6.586,-4.54 -10.5,-4.54 l -20.572,0 c -3.554,0 -6.852,1.074 -9.896,3.225 -3.047,2.151 -4.568,4.242 -4.568,6.271 0,1.336 0.492,2.524 1.477,3.558 0.984,1.034 2.263,1.553 3.834,1.553 1.287,0 2.665,-0.733 4.133,-2.199 1.469,-1.468 3.592,-2.199 6.37,-2.199 l 18.892,0 c 1.488,0 2.734,0.571 3.74,1.721 1.006,1.147 1.51,2.464 1.51,3.956 0,2.292 -1.095,3.946 -3.281,4.954 L 21.396,92.168 c -2.624,1.171 -4.64,2.865 -6.051,5.089 -1.411,2.22 -2.115,4.48 -2.115,6.775 0,3.625 1.256,6.774 3.776,9.441 2.52,2.664 5.632,3.998 9.34,3.998"
         inkscape:connector-curvature="0" />
      <path
         id="path3088"
         style="fill:#ed1c24;fill-opacity:1;fill-rule:nonzero;stroke:none"
         d="m 114.625,111.833 c -4.304,3.875 -8.737,5.772 -13.302,5.693 l -11.942,0 c -4.848,0 -9.343,-1.969 -13.485,-5.905 -4.142,-3.937 -6.212,-8.115 -6.212,-12.549 l 0,-21.496 c 0,-4.443 2.12,-8.632 6.363,-12.566 4.242,-3.939 8.686,-5.905 13.334,-5.905 l 11.942,0 c 4.565,0 8.998,1.936 13.302,5.813 4.302,3.874 6.456,8.095 6.456,12.658 l 0,21.496 c 0,4.637 -2.154,8.884 -6.456,12.761 m -32.684,-9.094 3.444,2.948 c 1.245,1.084 3.017,1.629 5.314,1.629 l 10.508,0 c 1.611,0 3.02,-0.503 4.23,-1.507 l 3.562,-2.83 c 1.248,-0.964 1.872,-2.457 1.872,-4.472 l 0,-20.55 c 0,-1.733 -0.624,-3.082 -1.872,-4.051 l -3.08,-2.719 c -1.409,-1.249 -2.98,-1.874 -4.712,-1.874 l -11.777,0 c -1.532,0 -2.72,0.364 -3.564,1.088 l -3.804,3.264 c -1.331,1.088 -1.994,2.559 -1.994,4.414 l 0,20.55 c 0,1.691 0.625,3.061 1.873,4.11"
         inkscape:connector-curvature="0" />
      <path
         id="path3090"
         style="fill:#ed1c24;fill-opacity:1;fill-rule:nonzero;stroke:none"
         d="m 131.08,64.139 0,48.244 c 0,1.414 0.502,2.611 1.509,3.602 1.003,0.991 2.222,1.486 3.657,1.486 2.666,0 4.346,-1.345 5.045,-4.033 2.809,2.688 5.945,4.033 9.402,4.033 4.059,0 7.393,-1.751 10.006,-5.253 3.212,3.502 6.749,5.253 10.609,5.253 3.133,0 5.858,-1.12 8.168,-3.355 2.309,-2.237 3.545,-5.086 3.706,-8.55 l 1.585,-41.44 c 0,-1.37 -0.512,-2.56 -1.529,-3.566 -1.017,-1.007 -2.22,-1.51 -3.602,-1.51 -1.425,0 -2.65,0.501 -3.667,1.506 -1.018,1.004 -1.548,2.19 -1.587,3.557 l -1.233,39.727 c -0.083,2.159 -0.751,3.246 -2.003,3.246 -0.692,0 -1.401,-0.303 -2.126,-0.908 l -6.08,-5.066 0,-37.105 c 0,-1.37 -0.498,-2.539 -1.489,-3.508 -0.994,-0.969 -2.199,-1.449 -3.615,-1.449 -1.379,0 -2.575,0.492 -3.586,1.48 -1.013,0.987 -1.52,2.185 -1.52,3.596 l 0,40.367 c 0,1.727 -0.738,2.593 -2.215,2.593 -0.72,0 -1.378,-0.265 -1.978,-0.786 l -7.246,-6.155 0,-36.034 c 0,-1.368 -0.488,-2.554 -1.461,-3.557 -0.975,-1.003 -2.148,-1.504 -3.523,-1.504 -1.418,0 -2.643,0.503 -3.677,1.513 -1.034,1.009 -1.55,2.201 -1.55,3.576"
         inkscape:connector-curvature="0" />
      <path
         id="path3092"
         style="fill:#ed1c24;fill-opacity:1;fill-rule:nonzero;stroke:none"
         d="m 196.754,91.16 c -3.019,-3.002 -4.53,-6.615 -4.53,-10.845 l 0,-5.919 c 0,-4.271 1.494,-7.896 4.481,-10.877 2.986,-2.981 6.623,-4.469 10.904,-4.469 l 17.204,0 8.6,5.155 c 0,-1.433 0.509,-2.65 1.526,-3.651 1.017,-1.003 2.261,-1.504 3.727,-1.504 1.383,0 2.584,0.492 3.604,1.483 1.017,0.99 1.527,2.191 1.527,3.606 l -1.231,38.087 c -0.123,4.263 -1.671,7.875 -4.654,10.822 -2.982,2.948 -6.578,4.423 -10.795,4.423 l -19.399,0 c -1.421,0 -2.624,-0.498 -3.618,-1.492 -0.996,-0.993 -1.491,-2.196 -1.491,-3.612 0,-1.379 0.505,-2.575 1.518,-3.587 1.013,-1.013 2.206,-1.519 3.584,-1.519 l 19.367,0 c 1.416,0 2.621,-0.494 3.613,-1.482 0.992,-0.984 1.491,-2.178 1.491,-3.584 l 0.232,-7.202 c -2.068,0.445 -3.645,0.668 -4.741,0.668 l -20.005,0 c -4.259,0 -7.895,-1.502 -10.914,-4.501 m 25.231,-21.55 -14.303,0 c -1.371,0 -2.56,0.492 -3.566,1.477 -1.006,0.985 -1.507,2.148 -1.507,3.49 l 0,5.556 c 0,1.381 0.494,2.552 1.478,3.518 0.984,0.964 2.184,1.449 3.595,1.449 l 19.976,0 c 1.409,0 2.594,-0.477 3.561,-1.421 0.965,-0.948 1.469,-2.128 1.509,-3.549 l 0.303,-4.201 -11.046,-6.319 z"
         inkscape:connector-curvature="0" />
      <path
         id="path3094"
         style="fill:#ed1c24;fill-opacity:1;fill-rule:nonzero;stroke:none"
         d="m 303.414,107.261 0,-43.129 c 0,-1.413 -0.514,-2.612 -1.529,-3.599 -1.018,-0.991 -2.223,-1.483 -3.606,-1.483 -1.465,0 -2.709,0.492 -3.725,1.483 -1.019,0.987 -1.529,2.186 -1.529,3.599 l 0,43.129 -5.164,0 c -1.402,0 -2.593,0.506 -3.571,1.519 -0.983,1.012 -1.474,2.208 -1.474,3.587 0,1.336 0.446,2.519 1.336,3.552 0.891,1.036 2.106,1.552 3.651,1.552 l 5.222,0 0,3.93 c 0,5.2 1.795,9.508 5.387,12.935 3.592,3.424 8.065,5.138 13.42,5.138 l 11.981,0 c 1.419,0 2.626,-0.513 3.621,-1.53 0.992,-1.017 1.492,-2.261 1.492,-3.724 0,-1.387 -0.51,-2.587 -1.522,-3.605 -1.013,-1.018 -2.209,-1.527 -3.584,-1.527 l -11.961,0 c -2.431,0 -4.443,-0.721 -6.046,-2.155 -1.6,-1.439 -2.399,-3.296 -2.399,-5.571 l 0,-3.891 10.207,0 c 1.377,0.038 2.572,-0.449 3.584,-1.459 1.014,-1.015 1.522,-2.229 1.522,-3.645 0,-1.379 -0.502,-2.575 -1.506,-3.587 -1.01,-1.013 -2.194,-1.519 -3.559,-1.519 l -10.248,0 z"
         inkscape:connector-curvature="0" />
      <path
         id="path3096"
         style="fill:#ed1c24;fill-opacity:1;fill-rule:nonzero;stroke:none"
         d="m 327.775,64.139 0,48.244 c 0,1.414 0.5,2.611 1.506,3.602 1.004,0.991 2.223,1.486 3.658,1.486 2.666,0 4.346,-1.345 5.045,-4.033 2.811,2.688 5.944,4.033 9.405,4.033 4.06,0 7.392,-1.751 10.004,-5.253 3.23,3.502 6.771,5.253 10.63,5.253 3.133,0 5.858,-1.12 8.17,-3.355 2.307,-2.237 3.541,-5.086 3.705,-8.55 l 1.584,-41.44 c 0,-1.37 -0.511,-2.56 -1.529,-3.566 -1.019,-1.007 -2.219,-1.51 -3.601,-1.51 -1.424,0 -2.649,0.501 -3.668,1.506 -1.018,1.004 -1.547,2.19 -1.584,3.557 l -1.235,39.727 c -0.084,2.159 -0.75,3.246 -2.004,3.246 -0.691,0 -1.4,-0.303 -2.127,-0.908 l -6.088,-5.066 0,-37.105 c 0,-1.37 -0.5,-2.539 -1.498,-3.508 -0.996,-0.969 -2.201,-1.449 -3.619,-1.449 -1.377,0 -2.574,0.492 -3.586,1.48 -1.011,0.987 -1.517,2.185 -1.517,3.596 l 0,40.367 c 0,1.727 -0.742,2.593 -2.217,2.593 -0.721,0 -1.379,-0.265 -1.979,-0.786 l -7.246,-6.155 0,-36.034 c 0,-1.368 -0.488,-2.554 -1.463,-3.557 -0.97,-1.003 -2.146,-1.504 -3.519,-1.504 -1.418,0 -2.645,0.503 -3.68,1.513 -1.033,1.009 -1.547,2.201 -1.547,3.576"
         inkscape:connector-curvature="0" />
    </g>
  </g>
</svg>
